<?xml version="1.0" encoding="UTF-8" standalone="no"?>
<!-- Created with Inkscape (http://www.inkscape.org/) -->

<svg
   xmlns:dc="http://purl.org/dc/elements/1.1/"
   xmlns:cc="http://creativecommons.org/ns#"
   xmlns:rdf="http://www.w3.org/1999/02/22-rdf-syntax-ns#"
   xmlns:svg="http://www.w3.org/2000/svg"
   xmlns="http://www.w3.org/2000/svg"
   xmlns:sodipodi="http://sodipodi.sourceforge.net/DTD/sodipodi-0.dtd"
   xmlns:inkscape="http://www.inkscape.org/namespaces/inkscape"
   width="1024"
   height="1024"
   id="svg2"
   version="1.1"
   inkscape:version="0.48.4 r9939"
   sodipodi:docname="mono-fedora-white.svg"
   inkscape:export-filename="C:\Personal\Dropbox\Projects\Website\public\favicon.16.png"
   inkscape:export-xdpi="1.40625"
   inkscape:export-ydpi="1.40625">
  <defs
     id="defs4">
    <filter
       id="filter2983"
       inkscape:label="Invert"
       x="0"
       y="0"
       width="1"
       height="1"
       inkscape:menu="Color"
       inkscape:menu-tooltip="Invert colors"
       color-interpolation-filters="sRGB">
      <feColorMatrix
         id="feColorMatrix2985"
         type="saturate"
         values="1"
         result="fbSourceGraphic" />
      <feColorMatrix
         id="feColorMatrix2987"
         in="fbSourceGraphic"
         values="-1 0 0 0 1 0 -1 0 0 1 0 0 -1 0 1 0 0 0 1 0 " />
    </filter>
  </defs>
  <sodipodi:namedview
     id="base"
     pagecolor="#ffffff"
     bordercolor="#666666"
     borderopacity="1.0"
     inkscape:pageopacity="0.0"
     inkscape:pageshadow="2"
     inkscape:zoom="0.50585938"
     inkscape:cx="512"
     inkscape:cy="512"
     inkscape:document-units="px"
     inkscape:current-layer="layer1"
     showgrid="false"
     fit-margin-top="0"
     fit-margin-left="0"
     fit-margin-right="0"
     fit-margin-bottom="0"
     inkscape:window-width="1920"
     inkscape:window-height="1014"
     inkscape:window-x="0"
     inkscape:window-y="27"
     inkscape:window-maximized="1" />
  <metadata
     id="metadata7">
    <rdf:RDF>
      <cc:Work
         rdf:about="">
        <dc:format>image/svg+xml</dc:format>
        <dc:type
           rdf:resource="http://purl.org/dc/dcmitype/StillImage" />
        <dc:title />
      </cc:Work>
    </rdf:RDF>
  </metadata>
  <g
     inkscape:label="Layer 1"
     inkscape:groupmode="layer"
     id="layer1"
     transform="translate(78.617289,-4.5893653)">
    <path
       style="fill:#000000;filter:url(#filter2983)"
       d="m 478.73587,1027.0287 c -2.28441,-0.9135 -5.48518,-3.1964 -7.11285,-5.0731 -3.57009,-4.1164 -9.07153,-4.4166 -12.18511,-0.6649 -2.07047,2.4948 -2.50518,2.4551 -4.72866,-0.4319 -1.73016,-2.2464 -2.68606,-2.5456 -3.25807,-1.0198 -1.44284,3.849 -5.70423,2.3598 -5.70423,-1.9933 0,-4.0112 -0.33884,-4.1213 -9.93342,-3.2278 -5.46338,0.5089 -10.32212,1.508 -10.7972,2.2204 -1.07362,1.6099 -10.36531,1.7059 -10.36531,0.1071 0,-0.6414 -2.86342,-1.1661 -6.36315,-1.1661 -3.49974,0 -6.6466,-0.8503 -6.99304,-1.8897 -0.34644,-1.0393 -2.03151,-1.5231 -3.74462,-1.0751 -1.71313,0.448 -4.34122,-0.412 -5.84023,-1.911 -3.07584,-3.0758 -6.42736,-3.5962 -6.42736,-0.9979 0,2.9533 -4.34296,1.9029 -8.62444,-2.0859 -2.71248,-2.5271 -4.32783,-3.1098 -4.7886,-1.7276 -0.83412,2.5024 -14.22779,2.8398 -14.22779,0.3584 0,-0.9501 -1.5548,-1.7275 -3.45511,-1.7275 -1.9003,0 -3.4551,-0.7774 -3.4551,-1.7276 0,-0.9502 -1.14818,-1.7276 -2.55151,-1.7276 -1.40332,0 -3.77171,-1.86226 -5.26311,-4.13839 -2.4648,-3.76176 -10.75796,-7.99565 -8.49755,-4.33821 0.53247,0.86154 0.11195,1.56644 -0.93431,1.56644 -1.87989,0 -4.316,-1.71346 -10.04541,-7.06552 -2.94114,-2.74741 -8.32636,-5.40986 -11.57803,-5.72416 -2.27966,-0.22033 -8.56195,-5.38921 -17.52525,-14.41927 -8.34624,-8.40837 -15.0211,-9.76974 -16.94057,-3.4551 -0.89632,2.94872 -1.4254,3.26148 -2.19179,1.29566 -0.55565,-1.42523 -2.64119,-4.18793 -4.63451,-6.13934 -8.3708,-8.19474 -13.18058,-14.83252 -12.06073,-16.64449 0.72828,-1.17837 0.41601,-1.45344 -0.79811,-0.70308 -1.09696,0.67796 -1.99448,0.40938 -1.99448,-0.59685 0,-1.00623 -2.37808,-1.82952 -5.28461,-1.82952 -3.08317,0 -4.83984,-0.71966 -4.21692,-1.72755 0.58723,-0.95015 0.28183,-1.72755 -0.67867,-1.72755 -3.01225,0 -14.168,-12.63276 -13.25556,-15.01056 0.47803,-1.24572 0.25385,-2.26496 -0.49819,-2.26496 -0.75204,0 -3.92054,-5.44179 -7.04111,-12.09286 -3.12059,-6.65108 -6.36788,-12.09287 -7.2162,-12.09287 -0.84833,0 -1.54242,-1.11372 -1.54242,-2.47491 0,-1.3612 -1.71289,-3.01857 -3.80642,-3.68302 -3.64664,-1.1574 -9.6663,-5.93493 -7.47795,-5.93493 1.25061,0 -1.60561,-3.58604 -8.15059,-10.23328 -2.61293,-2.65372 -4.75077,-5.71256 -4.75077,-6.79738 0,-1.08483 -0.7774,-1.97241 -1.72755,-1.97241 -0.95016,0 -1.72756,1.71027 -1.72756,3.80061 0,7.54057 -3.43551,0.38519 -4.35042,-9.06092 -0.53791,-5.55363 -2.00289,-10.24262 -3.56721,-11.41748 -1.75738,-1.31987 -2.02616,-2.38188 -0.79533,-3.14259 1.02252,-0.63194 1.27789,-2.06702 0.56749,-3.18906 -0.71039,-1.12203 -1.30612,-4.76096 -1.32384,-8.0865 -0.025,-4.68737 -0.71175,-5.9925 -3.05544,-5.80649 -3.50701,0.27832 -3.87935,-1.28411 -0.99372,-4.16974 1.5543,-1.5543 0.64704,-2.61078 -3.87473,-4.51206 -5.83596,-2.45383 -7.88983,-7.39288 -4.2012,-10.10288 1.00174,-0.73595 0.5839,-1.28032 -0.99453,-1.29566 -1.49713,-0.0138 -4.47039,-1.88744 -6.60721,-4.16198 l -3.88515,-4.13556 3.56275,-7.37403 c 2.31663,-4.79484 2.99309,-8.06045 1.93403,-9.33653 -0.89579,-1.07935 -1.82252,-4.84013 -2.05938,-8.35727 -0.24716,-3.66989 -1.33479,-6.39478 -2.55249,-6.39478 -3.01892,0 -3.98616,-4.25147 -4.27514,-18.79125 -0.20399,-10.26354 -0.80932,-12.89025 -3.10923,-13.49168 -4.67315,-1.22205 -7.40344,-9.41412 -5.22261,-15.67006 2.66101,-7.63339 1.50981,-15.16289 -2.27242,-14.86271 -3.70441,0.29399 -3.72956,-0.14719 -0.30637,-5.37172 3.84733,-5.87178 2.57183,-13.29985 -2.71685,-15.82182 -2.37538,-1.13274 -7.83524,-3.71536 -12.13303,-5.73917 -9.2518,-4.35665 -12.90219,-10.43343 -20.8057,-34.63533 -2.94774,-9.02646 -9.856706,-25.35182 -15.353266,-36.27859 -6.75874,-13.43585 -11.23509,-25.17942 -13.82849,-36.27859 -3.66249,-15.67456 -4.35293,-22.05856 -4.97752,-46.02339 -0.23875,-9.16024 -1.10626,-11.75462 -6.35423,-19.00307 -13.11532,-18.11473 -27.32963,-39.94276 -31.94472,-49.05546 -6.46947,-12.7743 -7.83049,-23.2317 -5.10063,-39.19062 1.97831,-11.56524 3.35226,-14.55314 12.14576,-26.41292 8.27221,-11.15674 12.85345,-15.30383 27.64819,-25.02803 9.75319,-6.41054 23.97875,-14.88523 31.61235,-18.83267 l 13.879266,-7.17715 5.48549,-22.41062 c 6.07472,-24.81799 23.87134,-87.85774 36.03495,-127.64423 4.33252,-14.17142 7.8773,-26.31852 7.8773,-26.99356 0,-3.20103 20.11749,-43.19483 26.92668,-53.53053 8.7113,-13.222905 28.07511,-32.334571 42.17816,-41.628939 25.40775,-16.744504 55.6039,-27.818355 119.19832,-43.713681 21.37845,-5.343491 40.72959,-10.506609 43.00252,-11.473571 14.85143,-6.3182089 88.62407,-8.9852189 118.52361,-4.2848489 25.39587,3.9923739 64.18626,22.0231449 100.12174,46.5391809 11.95038,8.152853 18.83111,14.618147 30.23216,28.406915 8.11825,9.818472 15.07603,18.758554 15.46173,19.866844 0.38569,1.1083 3.67778,6.74473 7.31575,12.52538 12.45644,19.79303 21.94608,42.72092 31.41439,75.90034 5.14652,18.03474 19.75831,70.40581 32.47064,116.38015 l 23.11331,83.58967 15.98458,7.44067 c 22.85439,10.63853 48.19448,25.93619 57.71709,34.84348 14.60996,13.66593 18.23155,32.49534 9.76848,50.78867 -6.33678,13.69727 -15.35422,21.90556 -35.20113,32.04255 -18.68952,9.54583 -55.70096,24.7699 -61.23115,25.18646 -4.2637,0.32119 -4.27523,0.06 0.43738,9.91774 3.14625,6.58128 5.03576,8.42332 9.91508,9.666 7.18247,1.82925 7.70488,3.62903 6.08162,20.95166 -1.16551,12.43768 -1.33104,12.80482 -5.32191,11.80317 -3.45634,-0.86749 -4.28641,-0.26577 -5.15955,3.74017 -0.5723,2.62567 -2.29617,8.99909 -3.83083,14.16316 -2.09085,7.03563 -2.27278,9.56171 -0.72574,10.07738 1.1355,0.37851 2.09866,2.37255 2.14037,4.43121 0.0416,2.05867 1.12299,6.67806 2.40287,10.2653 1.75455,4.91767 1.9896,10.81636 0.95545,23.97656 -0.88949,11.31942 -0.73281,19.28666 0.44578,22.6676 1.3121,3.76386 1.26552,6.09697 -0.16757,8.3916 -1.09168,1.74806 -1.98487,5.86385 -1.98487,9.1462 0,3.28237 -0.84514,6.49024 -1.87807,7.12864 -1.35242,0.83582 -1.35242,1.68638 0,3.0388 2.91165,2.91165 2.21359,10.1171 -1.5835,16.34489 -1.89674,3.11095 -3.44864,7.92383 -3.44864,10.69524 0,2.77142 -0.70712,5.47597 -1.57138,6.01011 -0.86424,0.53415 -1.52146,4.27317 -1.46044,8.30898 0.061,4.0358 -1.30015,10.05818 -3.0248,13.3831 -3.61454,6.96832 -4.76819,13.81926 -2.32707,13.81926 0.92257,0 1.13278,0.88121 0.46713,1.95825 -0.66566,1.07704 -1.37154,4.61429 -1.56862,7.86053 -0.19709,3.24626 -2.09405,8.24994 -4.21548,11.11932 -2.12142,2.86938 -4.11487,7.99031 -4.42989,11.37985 -0.31502,3.38955 -1.61197,6.80505 -2.8821,7.59004 -1.27011,0.78498 -2.00494,2.03863 -1.63296,2.78592 4.23718,8.51184 2.55786,18.06682 -2.92339,16.63345 -4.49921,-1.17658 -14.21063,7.47505 -10.14285,9.036 2.39565,0.9193 2.31074,1.50319 -0.68639,4.72022 -1.88112,2.01915 -3.00363,4.75677 -2.49447,6.08361 0.61983,1.61523 0.0629,2.08136 -1.68517,1.41055 -1.78463,-0.68484 -2.61092,0.0745 -2.61092,2.39896 0,1.87049 -0.69966,3.20655 -1.5548,2.96901 -0.85513,-0.23754 -1.55479,0.34551 -1.55479,1.29566 0,0.95016 0.67884,1.54015 1.50851,1.31109 2.79954,-0.77287 -0.55692,10.73738 -4.79129,16.43079 -2.31074,3.10695 -4.64347,8.37351 -5.18385,11.70345 -0.80051,4.93294 -1.57938,5.86502 -4.20467,5.03179 -2.72651,-0.86538 -3.22211,-0.0905 -3.22211,5.03822 0,3.33348 -0.84514,6.5832 -1.87808,7.2216 -1.35241,0.83582 -1.35241,1.68638 0,3.03879 2.54483,2.54483 2.3763,6.36698 -0.28136,6.38151 -3.38638,0.0185 -9.93289,10.89173 -9.9384,16.50685 -0.003,3.71347 -1.39325,6.00307 -5.17768,8.53086 -2.845,1.9003 -5.17495,4.72036 -5.17768,6.2668 -0.007,3.63597 -3.50624,6.37838 -7.34707,5.75706 -1.90973,-0.30894 -3.02322,0.61969 -3.02322,2.52126 0,1.65569 -1.9435,4.05045 -4.31888,5.32172 -2.37538,1.27128 -4.31888,3.26295 -4.31888,4.42598 0,2.42709 -4.76314,4.67498 -6.98988,3.29877 -1.91128,-1.18123 -10.28564,6.02799 -10.28564,8.85457 0,1.1747 -0.97175,2.47574 -2.15944,2.89118 -1.55315,0.54326 -1.23546,1.79626 1.13153,4.46284 2.994,3.37296 3.02379,3.7075 0.32993,3.7075 -1.62857,0 -2.48058,0.7774 -1.89335,1.72755 0.58723,0.95015 -0.0985,1.72755 -1.52365,1.72755 -1.42523,0 -2.99706,-0.6565 -3.49297,-1.45892 -1.42913,-2.31236 -20.03288,-2.41562 -20.03288,-0.11125 0,1.16893 -1.74685,1.63896 -4.2867,1.15343 -3.73061,-0.71315 -4.42785,-0.067 -5.37491,4.9813 -0.99486,5.303 -4.15881,8.3079 -4.15881,3.9497 0,-1.018 -1.22856,-0.6223 -2.73015,0.8792 -1.50157,1.5016 -2.41085,3.6881 -2.02061,4.8588 0.97364,2.9209 -2.91122,6.4783 -7.07474,6.4783 -1.889,0 -3.69482,0.7809 -4.01294,1.7352 -0.31812,0.9544 -3.87717,1.9261 -7.909,2.1594 -4.03182,0.2334 -7.33462,0.9907 -7.33954,1.6829 -0.005,0.6923 -2.08506,0.3127 -4.62254,-0.8435 -3.6444,-1.6605 -4.76336,-1.6527 -5.32661,0.037 -0.39217,1.1766 -1.50882,2.1392 -2.48145,2.1392 -0.97263,0 -1.34409,-1.1058 -0.82546,-2.4574 2.44868,-6.3811 -29.42659,-4.2101 -41.17078,2.8042 -5.86822,3.5048 -5.479,3.4616 -11.06366,1.2283 z m 78.51097,-86.34294 c 0.62727,-1.01494 2.22794,-1.42803 3.55706,-0.91801 1.32913,0.51005 2.41659,0.19874 2.41659,-0.69178 0,-0.89052 1.29363,-1.1227 2.87472,-0.51598 1.74391,0.6692 2.44477,0.40746 1.78172,-0.66537 -1.27006,-2.05503 7.07213,-6.54607 10.89153,-5.8635 1.42523,0.25473 2.01501,-0.12231 1.31066,-0.83783 -2.04232,-2.07463 2.11796,-5.83945 5.16199,-4.67135 2.1034,0.80715 2.48355,0.32772 1.58888,-2.00377 -0.81354,-2.12005 0.15911,-4.11498 3.15519,-6.47174 2.38219,-1.87382 4.33125,-4.48928 4.33125,-5.81212 0,-2.06033 4.18753,-5.51447 6.9102,-5.69996 3.7903,-0.25821 6.91463,-2.99725 6.93666,-6.08124 0.02,-2.81465 0.39247,-3.12412 1.55321,-1.29098 0.95587,1.50959 2.72236,1.94783 4.72432,1.17204 3.28293,-1.27222 12.93979,-3.01149 18.31364,-3.2984 1.66277,-0.0888 3.02321,-0.77223 3.02321,-1.51879 0,-0.74655 1.1661,-1.35736 2.59133,-1.35736 1.42523,0 2.59133,-0.81784 2.59133,-1.81742 0,-0.99958 2.30948,-2.62251 5.13219,-3.6065 2.8227,-0.984 5.06284,-2.30401 4.97808,-2.93335 -0.4739,-3.51861 0.55854,-5.46314 2.90058,-5.46314 1.45506,0 3.12281,-1.24372 3.70613,-2.76383 0.58333,-1.52011 2.69676,-4.55569 4.69656,-6.74574 6.32326,-6.92488 8.1318,-9.49186 6.7273,-9.54844 -0.75009,-0.0302 0.13423,-1.1883 1.96521,-2.57348 1.83094,-1.38521 2.801,-3.04654 2.15567,-3.69187 -0.64533,-0.64533 0.0532,-2.52867 1.5524,-4.1852 1.49913,-1.65653 2.9037,-4.05182 3.12125,-5.32285 0.60608,-3.5411 5.83985,-12.87968 8.97605,-16.01587 2.14495,-2.14495 2.3403,-3.36087 0.83194,-5.17832 -1.49005,-1.79541 -1.44377,-2.55099 0.18965,-3.09547 1.18847,-0.39616 2.32385,-2.9983 2.52307,-5.78254 0.19922,-2.78423 0.48487,-5.06225 0.63476,-5.06225 0.14995,0 0.52883,-1.33241 0.84211,-2.9609 0.31327,-1.6285 2.25024,-5.32114 4.30435,-8.20587 2.05411,-2.88474 3.09876,-5.25688 2.32143,-5.27142 -0.77731,-0.0138 -0.35029,-0.69989 0.94893,-1.52296 1.29922,-0.82306 2.64908,-3.96008 2.99965,-6.97114 0.38454,-3.30259 -0.0387,-5.05684 -1.06656,-4.42153 -0.93719,0.57921 -1.70398,0.27572 -1.70398,-0.67444 0,-0.95015 0.84511,-2.24986 1.87805,-2.88824 1.03292,-0.63838 1.4944,-2.62776 1.02551,-4.42084 -0.46891,-1.79308 -0.26599,-3.26013 0.45091,-3.26013 2.1479,0 7.49671,-13.36421 6.19303,-15.47358 -0.66395,-1.07431 -0.33642,-3.0025 0.72787,-4.2849 1.06428,-1.28238 2.23067,-4.55225 2.59197,-7.26641 0.3613,-2.71416 1.19923,-6.30517 1.86204,-7.98003 0.66283,-1.67488 0.24557,-4.20142 -0.92723,-5.61454 -1.21264,-1.46115 -1.3829,-2.56934 -0.39476,-2.56934 0.95568,0 2.14418,-1.5548 2.64113,-3.4551 0.49695,-1.90031 0.19891,-3.45511 -0.66229,-3.45511 -0.8612,0 -1.56582,-0.82328 -1.56582,-1.82951 0,-1.00623 0.69448,-1.4003 1.54328,-0.87571 0.84879,0.52458 2.1097,-1.17868 2.80203,-3.78504 2.19092,-8.24797 2.5328,-14.05629 0.88724,-15.0733 -0.92806,-0.57357 -0.58187,-3.84883 0.82969,-7.84964 1.33224,-3.77596 2.0576,-6.86539 1.61193,-6.86539 -0.44568,0 0.21824,-2.52655 1.47538,-5.61454 1.25714,-3.088 2.21859,-8.91849 2.13657,-12.95664 -0.0821,-4.03816 0.36639,-7.3421 0.9965,-7.3421 1.9132,0 2.97293,-11.08924 1.26339,-13.22052 -1.00662,-1.25498 -0.89525,-2.22549 0.30117,-2.62429 1.04418,-0.34807 1.41777,-1.8857 0.83016,-3.41696 -0.97412,-2.5385 -1.78298,-2.51318 -9.16852,0.287 -17.66303,6.69683 -51.0379,5.81535 -99.98399,-2.64076 -25.56887,-4.41737 -66.18371,-14.47308 -73.29162,-18.14608 -13.65769,-7.05759 -18.69031,-20.97286 -20.2955,-56.11753 l -1.10465,-24.18572 -9.50154,-1.99286 c -5.22584,-1.09608 -15.0033,-2.06782 -21.72768,-2.15944 l -12.22614,-0.16653 -2.12954,11.55741 c -1.17124,6.35658 -4.0183,16.96352 -6.32681,23.57098 -12.10275,34.64071 -21.2595,39.19366 -71.95454,35.77758 -56.05209,-3.77707 -110.61008,-15.17805 -140.80941,-29.42491 -17.72935,-8.36401 -21.21118,-16.67671 -22.87787,-54.61978 -0.0815,-1.85536 -16.26327,-4.42287 -30.31604,-4.81015 -5.58547,-0.15392 -6.8642,0.38915 -6.67027,2.83279 0.13199,1.66277 -0.64543,3.05612 -1.72755,3.09634 -2.11079,0.0784 -6.84957,6.8585 -16.06335,22.9829 -5.7785,10.11254 -7.45876,16.19713 -3.85835,13.97196 1.31465,-0.8125 1.5119,0.10089 0.63092,2.92126 -0.70493,2.25684 -2.07472,4.61232 -3.04398,5.23443 -0.96926,0.62211 -1.5966,3.343 -1.3941,6.04643 0.20252,2.70343 0.51728,7.24753 0.69947,10.09799 0.1822,2.85046 0.91056,5.61491 1.61856,6.14321 0.708,0.5283 1.45596,2.99881 1.66215,5.48999 0.20618,2.4912 0.98734,4.15092 1.73593,3.68827 0.74858,-0.46266 1.36107,0.75948 1.36107,2.71587 0,1.95638 0.65933,3.55706 1.46518,3.55706 2.18538,0 7.11498,12.145 7.53795,18.57118 0.20325,3.088 0.81204,5.61455 1.35285,5.61455 0.54081,0 1.15739,2.10352 1.37017,4.67446 0.21277,2.57096 1.15973,5.44733 2.10433,6.39194 2.23476,2.23476 2.22706,5.0004 -0.0104,3.61779 -2.73621,-1.69108 -2.01004,1.14335 1.20234,4.69298 1.72985,1.91145 3.58098,8.33539 4.51956,15.684 1.56148,12.22599 1.8752,40.20504 0.52697,46.99755 -0.37719,1.9003 1.2948,6.9125 3.71553,11.1382 2.89087,5.04637 3.71491,7.91191 2.40113,8.34983 -3.4737,1.15791 -2.14707,4.61698 2.6195,6.8302 3.64324,1.69164 5.1266,1.69164 7.1752,0 2.22662,-1.83867 2.41228,-1.4184 1.34744,3.05015 -0.67926,2.85046 -1.22876,6.71349 -1.22111,8.58453 0.007,1.87103 -0.92234,4.06806 -2.06667,4.88229 -1.61196,1.14698 -1.59485,1.67754 0.0758,2.35564 1.33763,0.54288 1.75637,2.46941 1.10275,5.07358 -0.57954,2.30908 -0.23272,5.18756 0.7707,6.39662 1.00343,1.20905 1.79285,6.27435 1.75426,11.25621 -0.0724,9.33692 1.71634,13.39535 9.70066,22.0106 2.69274,2.9055 4.40225,3.79855 4.43454,2.31655 0.0366,-1.67998 0.58909,-1.49029 1.82105,0.6252 0.97268,1.6703 1.23815,3.89506 0.58992,4.94391 -0.64823,1.04886 -0.14408,2.54637 1.1203,3.32781 1.2644,0.78145 2.33574,3.60978 2.38076,6.28518 0.0451,2.67541 0.85926,4.74426 1.80942,4.59745 0.95015,-0.14684 2.11625,0.25772 2.59133,0.89895 0.47507,0.64122 3.02344,2.11506 5.66302,3.27518 5.23607,2.30132 8.28513,7.56723 5.01309,8.6579 -2.7098,0.90327 -2.61741,3.48425 0.1211,3.38253 5.56704,-0.20673 8.31706,0.61415 7.3421,2.19166 -0.58723,0.95016 0.0919,1.72755 1.50919,1.72755 1.41727,0 3.03289,1.43683 3.59025,3.19293 1.10589,3.48434 8.91667,7.78919 11.37551,6.26953 1.25308,-0.77442 9.67689,12.85952 8.82999,14.29138 -0.94682,1.60084 0.38127,1.73566 4.75139,0.48232 3.73022,-1.0698 6.34436,-0.62252 10.25266,1.75424 3.77117,2.2934 5.48195,2.60954 6.08587,1.12464 0.46203,-1.13604 0.90142,-0.68988 0.97643,0.99147 0.10244,2.29449 1.21176,2.86201 4.44765,2.27523 2.3712,-0.42999 5.33048,0.23743 6.57619,1.48313 1.2457,1.24571 4.6937,2.79838 7.66223,3.45037 2.96852,0.652 6.32361,2.30157 7.45576,3.66573 1.13216,1.36416 3.32371,2.49336 4.87013,2.50936 1.54643,0.0155 5.86357,3.12557 9.59365,6.9102 3.73006,3.78462 7.8114,6.88114 9.06965,6.88114 1.25822,0 2.28769,1.08388 2.28769,2.40862 0,1.32476 2.33219,4.90526 5.18266,7.95669 2.85046,3.05143 5.18265,6.19085 5.18265,6.97649 0,0.78564 1.74915,1.98106 3.88699,2.65646 2.13785,0.67542 4.90283,2.6713 6.14439,4.4353 1.24157,1.764 3.31463,3.20727 4.60681,3.20727 1.29217,0 2.7437,0.97175 3.22563,2.15944 0.67699,1.66847 1.25588,1.61669 2.5461,-0.22774 1.98933,-2.84383 13.31665,-1.31365 14.87918,2.00999 0.76042,1.61743 1.2284,1.58808 2.02129,-0.12681 0.71483,-1.54607 1.67965,-1.69384 3.14095,-0.48107 1.4641,1.21509 3.31576,0.90533 6.05438,-1.01288 3.09669,-2.16901 3.44292,-3.08161 1.60982,-4.24323 -1.8867,-1.19555 -1.82831,-1.48499 0.30389,-1.50636 3.22766,-0.0323 9.14727,-6.66574 9.4351,-10.57279 0.11574,-1.57027 1.69811,-5.08719 3.5165,-7.81534 1.81838,-2.72815 3.08368,-6.01003 2.81174,-7.29307 -0.30781,-1.45233 0.30393,-1.83941 1.62081,-1.02552 1.50271,0.92873 1.83794,0.24693 1.15767,-2.35445 -0.549,-2.09937 0.081,-4.52371 1.47672,-5.682 1.97515,-1.63923 2.02297,-2.52683 0.25354,-4.70586 -1.85617,-2.28586 -1.70214,-2.50595 1.03482,-1.47875 2.40068,0.90099 2.96704,0.5592 2.23488,-1.34876 -0.53936,-1.40559 -0.22454,-3.02293 0.69963,-3.59407 0.92415,-0.57117 1.26621,-1.70845 0.76014,-2.52729 -0.50607,-0.81884 -0.047,-2.02841 1.02003,-2.6879 1.37467,-0.84959 1.25698,-1.63198 -0.40371,-2.68425 -1.65847,-1.05085 -1.72538,-1.49288 -0.2288,-1.51161 2.33294,-0.0292 8.37792,-10.27677 7.61968,-12.91708 -0.26243,-0.91386 0.88143,-2.65497 2.54192,-3.86914 1.66049,-1.21418 2.49951,-2.72715 1.86451,-3.36217 -0.63501,-0.63501 -0.34229,-2.13328 0.65048,-3.32949 0.99277,-1.19623 2.0145,-3.98864 2.2705,-6.20538 1.24227,-10.75654 2.78323,-12.99 8.53508,-12.37069 3.0243,0.32562 8.60828,0.78697 12.4089,1.0252 3.80061,0.23823 7.77029,0.9867 8.8215,1.66325 1.05122,0.67656 3.48872,0.92631 5.41667,0.55503 1.92795,-0.37129 6.25524,-0.0549 9.6162,0.70314 3.87847,0.87475 6.79069,0.69837 7.97187,-0.48281 1.02356,-1.02356 1.9205,-1.5112 1.9932,-1.08363 0.0727,0.42757 0.53601,2.3322 1.02958,4.23251 0.49358,1.9003 0.8818,6.76846 0.86271,10.81812 -0.019,4.04965 0.60615,6.96695 1.3894,6.48288 0.78324,-0.48406 1.17472,1.80291 0.86994,5.08218 -0.66294,7.13306 2.50884,18.49087 4.77295,17.09155 0.88368,-0.54615 1.45357,0.8435 1.2664,3.08809 -0.18716,2.24459 -0.15703,4.66413 0.0669,5.37674 0.22396,0.71262 0.54255,2.65611 0.70805,4.31888 0.60356,6.06478 3.00062,10.82911 4.86786,9.67512 1.16622,-0.72078 1.52286,-0.1979 0.92594,1.35762 -0.53394,1.39142 0.0838,4.43419 1.37276,6.76171 2.80859,5.07157 3.0994,7.41855 0.73844,5.95939 -2.52796,-1.56236 -2.10828,1.27896 0.80278,5.43511 1.3917,1.98691 2.05831,4.0846 1.48138,4.66152 -1.39339,1.39341 2.91747,6.50731 4.60586,5.46383 0.72372,-0.4473 1.31586,1.20449 1.31586,3.6706 0,4.31123 3.31595,8.10282 5.76346,6.5902 0.64771,-0.40031 2.13959,1.59448 3.31527,4.43286 2.23077,5.38554 4.17778,6.44199 6.11013,3.31538 z M 630.2961,817.51023 c -4.4401,-1.07483 -8.59746,-2.4837 -9.23855,-3.13086 -0.6411,-0.64714 -2.23288,-0.7671 -3.53729,-0.26654 -1.30438,0.50054 -4.44283,-0.71911 -6.97428,-2.71036 -2.53145,-1.99125 -5.46955,-3.62718 -6.52911,-3.63543 -2.23284,-0.0174 -14.8831,-11.62969 -14.8831,-13.66198 0,-0.75157 -1.74915,-3.30109 -3.88699,-5.66559 -2.13785,-2.36452 -6.69437,-7.38067 -10.1256,-11.14701 -3.43123,-3.76634 -7.23563,-8.7475 -8.45421,-11.06922 -2.15462,-4.10517 -13.66485,-15.44637 -15.67931,-15.44909 -0.55206,-7.4e-4 -2.04387,-1.94484 -3.31514,-4.32022 -1.27127,-2.37539 -3.34894,-4.31888 -4.61705,-4.31888 -6.2809,0 -26.51274,-14.97195 -26.45244,-19.57531 0.11316,-8.63793 12.52586,-7.81341 33.66082,2.23592 19.76929,9.39997 26.18276,12.15673 28.28208,12.15673 1.01566,0 3.5709,2.3322 5.67834,5.18266 2.10744,2.85046 4.81264,5.18265 6.01156,5.18265 1.1989,0 5.52276,2.23449 9.60854,4.96551 4.08578,2.73103 9.17784,5.50432 11.31569,6.16285 2.13784,0.65854 3.88699,2.33544 3.88699,3.72647 0,1.39102 1.07483,2.94158 2.3885,3.44568 2.43572,0.93468 9.02801,18.91003 8.2896,22.60347 -0.22366,1.11871 1.94666,3.42418 4.82293,5.12323 4.91989,2.90626 6.01895,4.58053 5.36353,8.17073 -0.15133,0.82919 0.78377,1.10123 2.07811,0.60454 1.56305,-0.59979 3.29769,1.64496 5.16546,6.6845 2.67992,7.23076 2.65916,7.66943 -0.44156,9.32887 -1.78954,0.95774 -3.49916,1.64898 -3.79916,1.53612 -0.30001,-0.11281 -4.17826,-1.08463 -8.61836,-2.15944 z M 317.53703,796.4698 c -1.8307,-1.8307 2.47206,-14.29922 5.29213,-15.33549 10.66014,-3.91719 23.99585,-16.34264 29.44334,-27.43361 6.69064,-13.62201 10.34949,-16.53328 24.45295,-19.45668 7.08182,-1.46793 16.83313,-4.53265 21.66956,-6.81047 6.76477,-3.18604 10.9324,-3.99362 18.06443,-3.50047 6.50164,0.44957 11.87343,-0.40223 17.98355,-2.85166 13.96766,-5.59936 30.58111,-10.04231 37.55096,-10.04231 8.27499,0 11.76965,5.03307 7.04798,10.15063 -1.68456,1.82578 -4.95388,5.40458 -7.26519,7.95287 -4.36623,4.81391 -24.02083,15.32753 -38.98643,20.85456 -10.32687,3.8139 -17.74569,8.90683 -19.07486,13.09472 -1.21921,3.84135 -16.36161,10.85689 -31.52823,14.60715 -6.37383,1.57606 -12.56712,3.64834 -13.76285,4.60508 -1.19574,0.95672 -4.80823,1.31204 -8.02774,0.78958 -4.21155,-0.68344 -6.78227,-0.0848 -9.16385,2.13399 -6.33708,5.90389 -21.23183,11.91526 -21.23183,8.56895 0,-0.90822 -2.29358,-0.46524 -5.09686,0.98438 -5.69866,2.94689 -6.03244,3.02341 -7.36706,1.68878 z M 151.69162,662.20828 c 4.10629,-8.73574 5.06214,-16.737 3.18797,-26.68591 -0.97121,-5.1556 -0.53853,-10.14242 1.48352,-17.09803 2.1049,-7.2406 2.33259,-10.14225 0.86692,-11.04807 -1.26726,-0.78321 -2.28536,-9.61381 -2.80893,-24.36322 -1.14321,-32.20635 -1.15361,-30.43257 0.25915,-44.20199 1.02131,-9.95414 0.76301,-12.94175 -1.29698,-15.00175 -1.41474,-1.41473 -3.0947,-6.5107 -3.73325,-11.32435 -0.80959,-6.10292 -1.94378,-8.75209 -3.74706,-8.75209 -1.42231,0 -3.10731,-1.35841 -3.74442,-3.01867 -0.6371,-1.66026 -2.96007,-4.82037 -5.16215,-7.02245 -2.20209,-2.20209 -5.23211,-5.87844 -6.73339,-8.16969 -2.77972,-4.24237 -11.37871,-9.43002 -15.63111,-9.43002 -1.29215,0 -3.69925,-0.82997 -5.34913,-1.84437 -4.29305,-2.63954 -14.680556,2.11829 -20.012936,9.16658 -7.4339,9.82606 -8.18364,16.49253 -5.4908,48.82323 2.99485,35.9568 5.28862,45.09196 17.134106,68.2383 5.10571,9.97662 12.59567,27.46808 16.64437,38.86992 8.28789,23.34022 9.26487,25.03926 14.41842,25.07497 2.0215,0.0138 5.61895,1.10389 7.99433,2.42194 6.74675,3.74368 8.01985,3.24032 11.72137,-4.63433 z m 565.01955,-34.42242 c 7.17889,-3.56301 8.58464,-5.27715 13.1877,-16.08099 4.64919,-10.9121 5.14498,-13.86402 5.07776,-30.23216 -0.094,-22.8832 -1.86163,-26.92049 -14.54891,-33.22927 -24.55003,-12.20759 -63.09352,-20.60716 -114.0085,-24.84522 -48.68903,-4.05279 -62.57927,-1.53984 -68.39254,12.37325 -4.94422,11.83319 -2.22533,50.19851 4.6226,65.22807 2.73109,5.99409 8.54886,8.50884 36.14303,15.62293 60.86887,15.69267 119.26897,20.41968 137.91886,11.16339 z M 438.51753,593.47265 c 5.30251,-1.13719 10.14602,-3.56876 12.90435,-6.47832 8.16009,-8.60749 18.43147,-40.63948 18.48527,-57.64751 0.048,-15.20339 -7.66917,-20.24454 -47.10114,-30.76787 -39.0408,-10.41894 -115.86734,-20.33801 -143.39617,-18.51387 -15.20514,1.00755 -19.9852,3.37289 -26.0945,12.91256 -5.04903,7.88404 -6.54428,22.3123 -4.65092,44.87851 1.00221,11.94483 2.1718,16.90377 4.62834,19.62385 13.09376,14.4984 80.46178,31.53686 142.35517,36.0039 27.38203,1.97625 33.60982,1.97461 42.8696,-0.0121 z M 717.91107,508.2592 c -2.41646,-12.14452 -4.39356,-25.02162 -4.39356,-28.6158 0,-3.59418 -0.78833,-10.69176 -1.75186,-15.77239 -0.96352,-5.08063 -1.87595,-14.70986 -2.02762,-21.3983 -0.15168,-6.68843 -0.9664,-13.076 -1.8105,-14.19457 -0.89822,-1.19032 -0.84092,-7.04035 0.13821,-14.10548 0.92008,-6.63942 1.43179,-14.27559 1.13712,-16.96928 -0.55715,-5.09324 -2.56344,-14.98878 -3.13244,-15.45005 -0.17976,-0.14581 -9.26692,-3.81257 -20.19369,-8.14852 -55.85374,-22.16385 -148.54544,-37.75323 -279.86342,-47.06891 -42.83973,-3.03904 -171.28503,-4.46804 -180.0973,-2.00364 -3.40582,0.95246 -4.75077,2.44415 -4.75077,5.26904 0,2.16725 -0.96525,4.90571 -2.14499,6.08546 -1.70831,1.7083 -1.67075,2.43811 0.18443,3.58467 1.65175,1.02082 1.76499,1.78851 0.38927,2.63876 -1.06709,0.6595 -1.47179,1.95696 -0.89931,2.88324 0.57247,0.92629 -0.19224,3.56611 -1.69936,5.86628 -3.10899,4.74491 -3.58446,10.48824 -1.0005,12.08523 0.95688,0.59135 2.23116,-0.20534 2.83176,-1.77045 1.83317,-4.77718 3.80313,0.60813 2.94735,8.05718 -0.5604,4.8778 -0.12783,6.66236 1.61454,6.66236 1.8371,0 2.2,2.26575 1.59104,9.93342 -0.43389,5.46338 -1.46959,11.24277 -2.30156,12.84307 -0.83196,1.6003 -1.51267,4.7853 -1.51267,7.07776 0,2.29247 -1.54039,6.03621 -3.42307,8.31945 -1.8827,2.28323 -4.06258,4.92872 -4.8442,5.87887 -0.78159,0.95016 -2.93384,6.62509 -4.78277,12.61099 -1.84893,5.98588 -4.54169,12.20507 -5.98388,13.82042 -4.42698,4.95844 -12.07222,25.03534 -12.06697,31.68864 0.004,4.03757 0.94748,6.65517 2.63434,7.30248 1.44617,0.55495 12.89977,2.26408 25.45246,3.79806 l 22.82304,2.78908 2.57329,-4.04513 c 1.41532,-2.22481 5.33379,-6.87592 8.70771,-10.33579 5.87492,-6.02456 6.78999,-6.3453 21.6311,-7.58155 39.22957,-3.2678 138.85533,11.71971 179.84342,27.05533 11.07762,4.14467 21.69762,12.91592 24.84851,20.52282 2.05437,4.95968 2.56897,5.164 13.00653,5.164 5.97714,0 16.9356,1.16101 24.35214,2.58002 l 13.48462,2.58003 3.51099,-4.2738 c 1.93104,-2.3506 7.39798,-6.03816 12.14875,-8.19458 7.81048,-3.54526 11.03684,-3.89772 33.68726,-3.68008 44.3034,0.42565 96.8113,8.52963 130.43017,20.13037 10.83419,3.73849 12.14559,3.87562 12.59944,1.31752 0.27862,-1.57044 -1.47053,-12.79173 -3.88699,-24.93623 z m -25.12418,-13.92557 c -3.32554,-2.2096 -6.7496,-3.59946 -7.60902,-3.08861 -0.85942,0.51086 -1.02499,0.0591 -0.36794,-1.00414 1.3494,-2.18336 -15.37863,-11.41069 -17.88171,-9.8637 -0.84889,0.52463 -2.06448,0.11074 -2.70131,-0.91963 -0.63684,-1.03043 -2.24535,-1.4562 -3.57448,-0.94618 -1.32912,0.51005 -2.41658,0.23682 -2.41658,-0.60714 0,-0.84396 -3.48789,-1.29933 -7.75087,-1.01193 -4.49855,0.30328 -7.33189,-0.15531 -6.75238,-1.09304 1.03657,-1.67718 -41.34839,-0.74214 -49.41617,1.09015 -2.37539,0.53948 -7.03978,1.32973 -10.36532,1.75611 -17.57475,2.25337 -23.64308,3.09778 -26.77705,3.72609 -10.10031,2.02495 -22.66638,2.08097 -25.04951,0.1116 -4.27106,-3.52943 -8.55768,-12.06877 -5.61454,-11.18469 0.71262,0.21406 3.52818,-1.71197 6.25681,-4.28008 2.72864,-2.56809 7.58738,-5.16195 10.7972,-5.7641 3.20983,-0.60217 5.83605,-1.71295 5.83605,-2.46841 0,-0.75546 1.46706,-0.98993 3.26014,-0.52102 1.79307,0.4689 3.76146,0.0415 4.37421,-0.95006 0.61273,-0.99143 2.38279,-1.31574 3.93346,-0.7207 1.92764,0.7397 2.41077,0.42073 1.52749,-1.00846 -0.94085,-1.52232 -0.079,-1.78593 3.1717,-0.97007 2.455,0.61616 4.46363,0.45296 4.46363,-0.36265 0,-0.81563 2.52654,-1.58353 5.61454,-1.70644 3.088,-0.12283 9.50154,-0.71704 14.25231,-1.32025 28.63324,-3.63562 27.08081,-3.54691 41.94897,-2.39732 5.96915,0.46153 11.26248,0.17662 11.76291,-0.63312 0.50046,-0.80974 1.6873,-1.47225 2.63746,-1.47225 0.95015,0 1.28695,0.71292 0.74843,1.58427 -0.53852,0.87134 3.10824,2.91769 8.10391,4.54745 4.99568,1.62977 10.02075,3.70467 11.16682,4.61091 1.14606,0.90622 2.89521,1.14617 3.887,0.53322 0.99177,-0.61295 1.80321,-0.2005 1.80321,0.91654 0,1.18093 1.44711,1.65257 3.45749,1.12684 1.90162,-0.49727 3.07104,-0.27886 2.59871,0.48541 -0.47235,0.76425 2.44182,3.02334 6.47593,5.02018 4.0341,1.99684 6.63119,3.63125 5.77131,3.63199 -0.85988,7.6e-4 -0.17293,1.53783 1.52655,3.41573 1.69948,1.8779 3.9578,2.91936 5.01852,2.31435 1.0607,-0.605 1.34381,-0.4554 0.62912,0.33244 -1.45,1.59843 3.6876,8.08874 5.51089,6.96187 0.63709,-0.39374 2.02376,1.57679 3.08147,4.37899 1.50992,4.00025 1.41469,5.60328 -0.44322,7.46119 -1.30147,1.30147 -1.88505,2.84756 -1.29686,3.43574 2.86088,2.86088 -6.29625,0.37633 -11.59928,-3.14715 z M 473.86378,472.20505 c -1.50648,-1.66277 -3.83054,-3.02322 -5.16457,-3.02322 -1.33405,0 -1.996,-0.69503 -1.47099,-1.5445 0.525,-0.84947 -3.12176,-5.86885 -8.10391,-11.15418 -4.98216,-5.28532 -9.31113,-10.61515 -9.61993,-11.84403 -0.3088,-1.22889 -1.36883,-2.5229 -2.3556,-2.87557 -0.98678,-0.35268 -3.04474,-2.10183 -4.57325,-3.887 -1.5285,-1.78516 -3.90199,-3.24576 -5.27442,-3.24576 -1.37242,0 -1.97535,-0.51995 -1.33984,-1.15547 1.56515,-1.56514 -3.96724,-7.48229 -6.99576,-7.48229 -1.33405,0 -1.97388,-0.73078 -1.42186,-1.62398 0.55202,-0.8932 -0.21693,-2.64234 -1.70877,-3.88699 -1.49185,-1.24465 -4.77867,-4.20651 -7.30402,-6.58189 -2.52537,-2.37538 -5.49382,-4.11427 -6.59657,-3.86419 -1.10275,0.25008 -2.98131,-0.72167 -4.17455,-2.15944 -1.19325,-1.43777 -1.50519,-2.61413 -0.69321,-2.61413 0.81198,0 -1.43879,-1.98088 -5.00169,-4.40194 -3.56293,-2.42106 -7.36181,-3.85574 -8.44196,-3.18818 -1.1325,0.69993 -1.4915,0.44942 -0.84802,-0.59176 1.18719,-1.92093 -6.74449,-7.94193 -10.46221,-7.94193 -1.21698,0 -2.21269,-0.55843 -2.21269,-1.24095 0,-2.05697 -8.63962,-7.05686 -12.99667,-7.5214 -2.24094,-0.23892 -5.21843,-1.38384 -6.61664,-2.54426 -1.39819,-1.16039 -4.74814,-2.26551 -7.4443,-2.45578 -2.69615,-0.19027 -5.34615,-0.94431 -5.88886,-1.67566 -1.38012,-1.85974 -18.5962,-3.36855 -21.06024,-1.84568 -1.11467,0.6889 -3.99538,1.34862 -6.40158,1.46602 -6.19573,0.30234 -13.87644,2.69693 -13.87644,4.32624 0,0.75819 -1.39887,1.01272 -3.10861,0.56562 -1.70972,-0.44711 -6.56846,0.46768 -10.7972,2.03288 -4.22872,1.56519 -8.85469,3.05991 -10.27992,3.32161 -1.42523,0.26169 -4.76346,1.35698 -7.41828,2.43395 -8.57494,3.47855 -13.31234,4.21556 -13.31234,2.07102 0,-1.10922 -0.90951,-1.45468 -2.02113,-0.76765 -1.3759,0.85035 -1.65363,0.29144 -0.86996,-1.75075 0.63313,-1.64994 0.50126,-4.30401 -0.29303,-5.89794 -0.88373,-1.77341 -0.55601,-4.57409 0.84451,-7.21695 1.25877,-2.37538 2.30013,-3.72379 2.31414,-2.99647 0.0138,0.72732 4.96822,-1.79923 11.00935,-5.61454 6.04114,-3.81532 11.87163,-6.93696 12.95664,-6.93696 1.08502,0 1.97276,-0.82328 1.97276,-1.82951 0,-1.00623 0.60456,-1.45586 1.34345,-0.9992 1.86608,1.1533 19.6068,-5.01356 18.26964,-6.35072 -0.59618,-0.59618 1.16051,-1.04975 3.90378,-1.00792 2.74325,0.0418 7.31993,-0.36262 10.17039,-0.89874 6.58584,-1.23873 17.27624,-1.24052 25.0495,-0.003 3.32554,0.52891 8.20323,1.01901 10.83932,1.08914 2.63609,0.0701 4.40597,0.51443 3.93305,0.98733 -1.27248,1.27248 9.86114,6.90475 12.80553,6.47804 1.39063,-0.20152 4.06375,1.064 5.94029,2.81226 3.2984,3.07292 6.25058,3.93894 11.13964,3.26781 1.28305,-0.17613 1.89047,0.39549 1.34984,1.27025 -0.8739,1.414 3.69834,4.39429 8.41024,5.48197 0.95015,0.21933 2.11625,0.91201 2.59133,1.5393 2.59118,3.4214 13.82041,10.48605 13.82041,8.69484 0,-2.11753 2.56868,-0.50847 2.6175,1.63964 0.0774,3.40305 13.34833,13.38939 16.81746,12.65506 0.71262,-0.15082 1.29566,0.63114 1.29566,1.73774 0,2.40287 22.75356,24.85626 24.61762,24.29287 0.71262,-0.21537 1.10131,0.51659 0.86378,1.62661 -0.23754,1.11001 1.17347,2.85915 3.13557,3.887 1.9621,1.02782 3.5169,2.34995 3.45511,2.93804 -0.23607,2.24655 8.28879,11.88738 10.51134,11.88738 1.28312,0 2.16006,0.58304 1.94876,1.29566 -0.72464,2.44386 5.96344,10.7972 8.64478,10.7972 1.47431,0 2.16059,0.51996 1.52508,1.15547 -0.6355,0.63552 -0.0796,2.38466 1.2353,3.88699 3.31713,3.78993 4.99733,10.01091 3.03189,11.22562 -0.8996,0.55598 -1.22623,2.57645 -0.72585,4.48994 0.70191,2.68412 0.2651,3.23166 -1.91174,2.39634 -1.55184,-0.5955 -3.78337,-0.287 -4.95896,0.68558 -3.20175,2.64879 -11.50888,1.61815 -14.61809,-1.81365 z M 735.3315,373.96483 c -1.36789,-4.16478 -4.99368,-16.90112 -8.0573,-28.30296 -5.51148,-20.51199 -5.67646,-20.8335 -15.64316,-30.4844 -25.51364,-24.70526 -60.56788,-49.45035 -83.87085,-59.20516 -26.33097,-11.02237 -65.73416,-20.71432 -98.90287,-24.32699 -32.94046,-3.58783 -88.91884,-4.8855 -120.25273,-2.78767 -30.75266,2.05892 -94.3661,11.69602 -120.92866,18.32004 -55.18632,13.76204 -115.67455,36.20881 -144.09221,53.47164 l -9.97506,6.0595 -2.75102,12.53697 c -1.51306,6.89533 -2.42106,12.86691 -2.0178,13.27017 0.40327,0.40328 7.61965,-1.33346 16.03638,-3.85942 22.33965,-6.70437 61.89415,-14.36127 86.65427,-16.77444 27.53784,-2.68387 131.47699,-1.16622 182.25675,2.66121 75.87661,5.71904 139.42875,13.48085 183.88568,22.4585 55.10015,11.12694 80.88958,19.07126 120.22041,37.03338 10.35564,4.72934 19.07522,8.35202 19.37685,8.05039 0.30163,-0.30161 -0.57077,-3.95596 -1.93868,-8.12076 z"
       id="path3074"
       inkscape:connector-curvature="0" />
  </g>
</svg>
