<?xml version="1.0" encoding="UTF-8" standalone="no"?>
<!-- Created with Inkscape (http://www.inkscape.org/) -->

<svg
   xmlns:dc="http://purl.org/dc/elements/1.1/"
   xmlns:cc="http://creativecommons.org/ns#"
   xmlns:rdf="http://www.w3.org/1999/02/22-rdf-syntax-ns#"
   xmlns:svg="http://www.w3.org/2000/svg"
   xmlns="http://www.w3.org/2000/svg"
   xmlns:sodipodi="http://sodipodi.sourceforge.net/DTD/sodipodi-0.dtd"
   xmlns:inkscape="http://www.inkscape.org/namespaces/inkscape"
   inkscape:export-ydpi="180.00002"
   inkscape:export-xdpi="180.00002"
   inkscape:export-filename="/media/Data/Stephen/Dropbox/Projects/stephencoakley.com/public/images/banner.png"
   sodipodi:docname="banner.svg"
   inkscape:version="0.48.4 r9939"
   version="1.1"
   id="svg2"
   height="720"
   width="1023.9999">
  <sodipodi:namedview
     id="base"
     pagecolor="#ffffff"
     bordercolor="#666666"
     borderopacity="1.0"
     inkscape:pageopacity="0.0"
     inkscape:pageshadow="2"
     inkscape:zoom="0.83333333"
     inkscape:cx="318.19994"
     inkscape:cy="360"
     inkscape:document-units="px"
     inkscape:current-layer="layer1"
     showgrid="false"
     fit-margin-top="0"
     fit-margin-left="0"
     fit-margin-right="0"
     fit-margin-bottom="0"
     inkscape:window-width="1366"
     inkscape:window-height="744"
     inkscape:window-x="0"
     inkscape:window-y="24"
     inkscape:window-maximized="1"
     inkscape:snap-bbox="true"
     inkscape:bbox-paths="true" />
  <defs
     id="defs4">
    <inkscape:perspective
       sodipodi:type="inkscape:persp3d"
       inkscape:vp_x="0 : 372.04724 : 1"
       inkscape:vp_y="0 : 1000 : 0"
       inkscape:vp_z="1052.3622 : 372.04724 : 1"
       inkscape:persp3d-origin="526.18109 : 248.03149 : 1"
       id="perspective2987" />
  </defs>
  <metadata
     id="metadata7">
    <rdf:RDF>
      <cc:Work
         rdf:about="">
        <dc:format>image/svg+xml</dc:format>
        <dc:type
           rdf:resource="http://purl.org/dc/dcmitype/StillImage" />
        <dc:title></dc:title>
      </cc:Work>
    </rdf:RDF>
  </metadata>
  <g
     inkscape:label="Layer 1"
     inkscape:groupmode="layer"
     id="layer1"
     transform="translate(-51.118981,-301.66957)">
    <g
       id="g3794"
       transform="matrix(1.4903986,0,0,1.0470537,-501.37327,-471.78304)">
      <path
         style="fill:#00c090;fill-opacity:1"
         d="M370.701 1426.3381C370.8675 1197.4639033 371.0345 967.9023967 371.201 739.0282C599.8269785 738.91700797 829.1395215 738.80548203 1057.7655 738.69429C1057.5775215 967.57648203 1057.3889785 1197.14600797 1057.201 1426.0282C828.5965 1426.1313967 599.3055 1426.2349033 370.701 1426.3381Z"
         id="path3798"
         inkscape:connector-curvature="0"
         sodipodi:nodetypes="ccccc" />
      <path
         style="fill:#00a87b;fill-opacity:1"
         d="m 371.11765,1425.6115 c -0.13874,-6.9312 -0.27791,-13.8832 -0.41665,-20.8144 114.39624,-107.3195 229.13602,-214.9614 343.53226,-322.2809 -114.39624,85.585 -229.13602,171.427 -343.53226,257.012 0,-28.8045 0,-57.6955 0,-86.5 114.39624,-56.7805 229.13602,-113.7315 343.53226,-170.512 -114.39624,41.8554 -229.13602,83.8366 -343.53226,125.692 0,-22.1322 0,-44.331 0,-66.4632 114.39624,-19.7232 229.13602,-39.5056 343.53226,-59.2288 -114.39624,7.029 -229.13602,14.0792 -343.53226,21.1082 2.0779,-20.3502 -2.0779,-40.7615 0,-61.1117 112.31834,13.3212 231.21392,26.6823 343.53226,40.0035 -114.39624,-25.8212 -229.13602,-51.72 -343.53226,-77.5412 0,-22.04259 0,-44.15138 0,-66.19397 114.39624,47.86381 229.13602,95.87137 343.53226,143.73517 C 599.83702,1019.5314 485.09724,956.35755 370.701,893.37279 c 0,-28.9983 0,-58.08367 0,-87.08197 114.39624,91.98305 229.13602,184.24233 343.53226,276.22538 C 599.83702,968.02351 485.09724,853.187 370.701,738.69431 c 34.4655,0 69.0345,0 103.5,0 C 554.13174,853.187 634.30252,968.02351 714.23326,1082.5162 651.11902,968.02351 587.81524,853.187 524.701,738.69431 c 23.976,0 48.024,0 72,0 39.13824,114.49269 78.39402,229.3292 117.53226,343.82189 -26.25743,-114.49269 -52.59371,-229.3292 -78.85114,-343.82189 20.08726,0 40.23483,0 60.32209,0 6.17017,114.49269 12.35888,229.3292 18.52905,343.82189 5.91547,-114.49269 11.8487,-229.3292 17.76417,-343.82189 20.22698,0 40.51469,0 60.74167,0 -26.14244,114.49269 -52.3634,229.3292 -78.50584,343.82189 79.9226,-114.49269 160.0852,-229.3292 240.0078,-343.82189 34.47364,0 69.05084,0 103.52444,0 -114.39624,114.49269 -229.136,229.3292 -343.53224,343.82189 114.39624,-91.90391 229.136,-184.08381 343.53224,-275.98772 0.5027,28.38958 -0.5027,56.86442 0,85.254 -114.89895,63.51433 -228.63327,127.21942 -343.53224,190.73372 114.39624,-48.0255 229.136,-96.19531 343.53224,-144.22086 0,22.01023 0,44.08654 0,66.09676 -114.39624,26.0153 -229.136,52.1088 -343.53224,78.1241 114.39624,-13.3159 229.136,-26.6718 343.53224,-39.9877 0,20.313 0,40.687 0,61 -114.39624,-6.9971 -229.136,-14.0152 -343.53224,-21.0123 114.39624,19.5675 229.136,39.1937 343.53224,58.7612 0,22.0616 0,44.1895 0,66.2511 -114.39624,-41.6291 -229.136,-83.3832 -343.53224,-125.0123 114.39624,56.6762 229.136,113.5225 343.53224,170.1987 0,28.9089 0,57.9047 0,86.8136 -114.39624,-85.5851 -229.136,-171.4272 -343.53224,-257.0123 114.39624,107.3337 229.136,214.9898 343.53224,322.3235 0,7.159 0,14.3394 0,21.4984 -29.825,0 -59.73952,0 -89.5645,0 -84.57126,-114.4927 -169.39648,-229.3292 -253.96774,-343.8219 66.62054,114.4927 133.44115,229.3292 200.06169,343.8219 -25.16568,0 -50.40692,0 -75.5726,0 -41.45487,-114.4927 -83.03422,-229.3292 -124.48909,-343.8219 27.70297,114.4927 55.48914,229.3292 83.19211,343.8219 -21.39935,0 -42.86295,0 -64.2623,0 -6.30363,-114.4927 -12.62618,-229.3292 -18.92981,-343.8219 -6.31303,114.4927 -12.64503,229.3292 -18.95806,343.8219 -21.22286,0 -42.50944,0 -63.7323,0 27.53589,-114.4927 55.15447,-229.3292 82.69036,-343.8219 -41.33503,114.4927 -82.79419,229.3292 -124.12922,343.8219 -25.44222,0 -50.96083,0 -76.40305,0 66.77725,-114.4927 133.75502,-229.3292 200.53227,-343.8219 -84.59274,114.4927 -169.43952,229.3292 -254.03226,343.8219 -29.8035,0 -59.6965,0 -89.5,0 z M 831.71864,738.69431 c 23.83489,0 47.74137,0 71.57626,0 C 840.33737,853.187 777.19079,968.02351 714.23326,1082.5162 753.35589,968.02351 792.59601,853.187 831.71864,738.69431 z"
         id="path3796"
         inkscape:connector-curvature="0"
         sodipodi:nodetypes="ccccccccccccccccccccccccccccccccccccccccccccccccccccccccccccccccccccccc" />
    </g>
  </g>
</svg>
