<?xml version="1.0" standalone="no"?>
<!DOCTYPE svg PUBLIC "-//W3C//DTD SVG 1.1//EN" "http://www.w3.org/Graphics/SVG/1.1/DTD/svg11.dtd" >
<svg xmlns="http://www.w3.org/2000/svg">
<metadata></metadata>
<defs>
<font id="josefin_slabregular" horiz-adv-x="1101" >
<font-face units-per-em="2048" ascent="1536" descent="-512" />
<missing-glyph horiz-adv-x="614" />
<glyph horiz-adv-x="2048" />
<glyph horiz-adv-x="2048" />
<glyph unicode="&#xd;" horiz-adv-x="614" />
<glyph unicode=" "  horiz-adv-x="614" />
<glyph unicode="&#x09;" horiz-adv-x="614" />
<glyph unicode="&#xa0;" horiz-adv-x="614" />
<glyph unicode="!" horiz-adv-x="411" d="M139 113q0 29 20.5 48t45.5 19t45 -19.5t20 -47.5q0 -29 -20 -48.5t-45 -19.5t-45.5 19.5t-20.5 48.5zM162 340v1196h86v-1196h-86z" />
<glyph unicode="&#x22;" horiz-adv-x="634" d="M129 967v508h90q-2 -129 -4 -254t-4 -254h-82zM401 967v508h91q-2 -129 -4.5 -254t-4.5 -254h-82z" />
<glyph unicode="#" horiz-adv-x="1169" d="M55 430q4 23 6 42.5t5 41.5h221q8 72 16 144.5t16 146.5h-217q4 20 5.5 40.5t3.5 41.5h219q14 109 26.5 215t26.5 215h86q-14 -109 -26.5 -215.5t-26.5 -214.5h291q14 109 26 215t27 215h86q-14 -109 -26.5 -215.5t-26.5 -214.5h251q-4 -20 -5 -41t-3 -41h-254 q-8 -74 -16 -146.5t-16 -144.5h247q-2 -23 -4 -42t-4 -42h-252l-49 -430h-86l49 430h-291l-49 -430h-86l49 430h-219zM373 514h291q8 72 16 144.5t16 146.5h-290q-8 -74 -16.5 -146.5t-16.5 -144.5z" />
<glyph unicode="$" horiz-adv-x="1161" d="M74 156v217h82v-185q51 -47 121.5 -80.5t168.5 -37.5v661q-61 18 -118.5 42t-101.5 59.5t-72.5 90t-32.5 136.5q-4 63 13.5 127.5t57 118t102 90.5t152.5 43v127h84v-125q66 -4 145 -24.5t146 -76.5v-221h-82v180q-35 23 -86 39.5t-123 20.5v-565q72 -23 142.5 -48.5 t127 -70.5t92.5 -115t38 -178q0 -86 -31 -157.5t-85 -123t-128 -81t-156 -33.5v-125h-84v127q-72 4 -132 21.5t-106 42t-80 52t-54 52.5zM207 1073q0 -59 19.5 -99t52 -68.5t75.5 -48t92 -36.5v531q-59 -6 -104 -32t-74.5 -63.5t-45 -85t-15.5 -98.5zM530 70q61 6 119 29.5 t101 62.5t68.5 93t25.5 122q0 82 -26.5 137t-71 91t-100.5 58.5t-116 41.5v-635z" />
<glyph unicode="%" horiz-adv-x="1486" d="M207 797q0 49 19.5 92t51 74.5t75.5 50t93 18.5t92.5 -18.5t76 -50t52 -74.5t19.5 -92t-19.5 -93.5t-52 -76t-76 -50t-92.5 -18.5t-93 18.5t-75.5 50t-51 76t-19.5 93.5zM293 795q0 -63 44 -107.5t109 -44.5q66 0 110 44t44 108q0 66 -44 109.5t-110 43.5t-109.5 -43.5 t-43.5 -109.5zM397 0q154 258 305.5 512t305.5 512h94q-154 -258 -305.5 -512t-304.5 -512h-95zM829 229q0 49 19.5 92.5t51.5 75t76 50t93 18.5t92 -18.5t76 -50t52.5 -74.5t19.5 -93q0 -49 -19.5 -93t-52.5 -75.5t-76 -50t-92 -18.5t-93 18.5t-76 50t-51.5 75.5t-19.5 93z M915 229q0 -66 44.5 -109.5t109.5 -43.5q66 0 110 44t44 109q0 63 -44 108.5t-110 45.5t-110 -45.5t-44 -108.5z" />
<glyph unicode="&#x26;" horiz-adv-x="1433" d="M217 383q0 74 24.5 140.5t69.5 118.5t105.5 87t132.5 47l-146 240q-37 61 -52 126.5t-5 129t47 119t105 96.5q57 35 117.5 42t118 -3t107.5 -33t89 -47l-35 -70q-37 20 -79 40t-86 29t-89 5t-88 -31q-111 -70 -123 -174t49 -205l428 -696q29 51 29 113v311h295v-84h-209 v-139q2 -74 0 -160t-39 -164l133 -215l-65 -45l-111 178q-55 -72 -139 -113.5t-183 -41.5q-84 0 -156.5 31.5t-126.5 85t-86 126t-32 156.5zM301 383q0 -66 24.5 -123t66.5 -100t100.5 -67.5t125.5 -24.5q90 0 161 42t112 109l-293 479q-63 -6 -117.5 -31.5t-94.5 -66.5 t-62.5 -97.5t-22.5 -119.5z" />
<glyph unicode="'" horiz-adv-x="313" d="M117 967v508h90q-2 -129 -4 -254t-4 -254h-82z" />
<glyph unicode="(" horiz-adv-x="831" d="M274 598q0 154 29 293t76 258t107.5 216t125.5 165q16 -12 31.5 -23.5t32.5 -23.5q-59 -68 -115.5 -160t-101.5 -204.5t-72 -244t-27 -276.5t27 -276.5t72 -244t101 -204.5t116 -160q-16 -12 -31.5 -23.5t-32.5 -23.5q-66 68 -126 165t-107 216t-76 258t-29 293z" />
<glyph unicode=")" horiz-adv-x="819" d="M197 -291q59 68 115.5 160t101.5 204.5t71.5 244t26.5 276.5t-26.5 276t-71.5 244t-101.5 205t-115.5 160q16 12 31.5 23t31.5 24q63 -68 124.5 -165t109 -216t76 -258t28.5 -293t-28.5 -293t-76 -258t-108.5 -216t-125 -165q-16 12 -31.5 23.5t-31.5 23.5z" />
<glyph unicode="*" horiz-adv-x="686" d="M68 1075q47 27 94 52.5t94 52.5q-47 29 -93 55.5t-93 54.5q16 35 41 72q47 -29 94 -55.5t94 -55.5v224h90q0 -55 -1 -110.5t-1 -113.5q47 29 96 55.5t97 53.5q10 -16 20 -34.5t21 -37.5q-49 -29 -96.5 -55t-96.5 -55q47 -27 95 -53.5t95 -55.5q-12 -18 -23 -37.5 t-24 -40.5q-47 29 -93 55.5t-93 55.5q-2 -53 -2 -106.5t-2 -106.5h-82v213q-47 -27 -92 -52.5t-92 -54.5q-12 20 -23.5 40t-23.5 40z" />
<glyph unicode="+" horiz-adv-x="1112" d="M176 432v84h326v326h86v-326h325v-84h-325v-328h-86v328h-326z" />
<glyph unicode="," horiz-adv-x="409" d="M35 -246q41 106 79 211t79 211h96q-45 -106 -88 -210.5t-88 -211.5h-78z" />
<glyph unicode="-" horiz-adv-x="614" d="M109 346v84h376v-84h-376z" />
<glyph unicode="." horiz-adv-x="333" d="M109 68q0 29 20.5 48t46.5 19q25 0 45.5 -19.5t20.5 -47.5q0 -29 -20.5 -48.5t-45.5 -19.5q-27 0 -47 19.5t-20 48.5z" />
<glyph unicode="/" horiz-adv-x="706" d="M35 -39q143 389 284.5 773t284.5 773h86q-143 -389 -284.5 -773t-284.5 -773h-86z" />
<glyph unicode="0" horiz-adv-x="1261" d="M74 670q0 121 35.5 242.5t104.5 218t173.5 157t243.5 60.5q137 0 239.5 -61.5t170 -160t100.5 -220.5t33 -242q0 -147 -46.5 -272.5t-123 -215.5t-177 -140t-209.5 -50t-208 52t-173.5 143t-118.5 216.5t-44 272.5zM162 670q0 -133 38 -244t101.5 -189.5t146 -123.5 t173.5 -45q90 0 174 43t148.5 120.5t104 187t39.5 243.5q0 121 -30.5 229t-90 191t-145.5 132.5t-192 49.5q-109 0 -195 -47.5t-146.5 -129t-93 -190t-32.5 -227.5z" />
<glyph unicode="1" horiz-adv-x="542" d="M70 1247v84h280v-1249h164v-82h-414v82h164v1165h-194z" />
<glyph unicode="2" horiz-adv-x="1034" d="M98 948q0 82 26 155t75 127t121.5 86t166.5 32q86 0 157 -32t121 -87t77.5 -130t27.5 -161q0 -111 -50 -220.5t-130 -216t-178.5 -211t-194.5 -206.5h560v215h81v-299h-849q129 127 250.5 249t216 237.5t151.5 223t57 203.5q0 100 -29.5 167t-73.5 108t-96.5 58.5 t-97.5 17.5q-92 0 -150 -33t-92 -80t-47.5 -102.5t-13.5 -100.5q0 -72 20.5 -127t59.5 -98l-51 -51q-53 47 -84 121.5t-31 154.5z" />
<glyph unicode="3" horiz-adv-x="1054" d="M162 123l63 63q45 -53 108.5 -85.5t139.5 -32.5q72 0 135.5 27.5t110.5 74.5t74.5 109.5t27.5 132.5t-27.5 132t-74.5 109t-110.5 74t-135.5 27q-35 0 -67.5 -11.5t-61.5 -31.5l375 536h-426v-123h-82v207h661l-362 -504q82 -6 154.5 -39.5t127 -89t85 -128t30.5 -158.5 q0 -88 -33.5 -166t-92 -136.5t-137.5 -92t-167 -33.5q-94 0 -175 37.5t-140 101.5z" />
<glyph unicode="4" horiz-adv-x="1054" d="M76 375l749 973v-889h199v-84h-199v-293h170v-82h-411v82h155v293h-663zM250 459h489v637z" />
<glyph unicode="5" horiz-adv-x="1112" d="M225 102l64 58q45 -43 103.5 -67.5t125.5 -24.5q72 0 135.5 27.5t110.5 74.5t74.5 109.5t27.5 132.5t-27.5 131t-74.5 107t-110.5 73t-135.5 27t-131 -25t-94 -68v674h588v-207h-82v123h-420v-444q33 14 68.5 22.5t72.5 8.5q88 0 167 -33t137.5 -90.5t93 -134 t34.5 -164.5t-34.5 -166t-93 -136.5t-137.5 -92t-167 -33.5q-86 0 -160.5 31.5t-134.5 86.5z" />
<glyph unicode="6" horiz-adv-x="1064" d="M100 399q0 147 63.5 275.5t162 240t219.5 207t235 178.5q12 -16 26.5 -34.5t29.5 -34.5q-219 -143 -344 -273.5t-181 -224.5q39 45 95.5 73t121.5 28q88 0 167 -34t137.5 -91.5t92 -135t33.5 -165.5t-33.5 -165t-92 -134.5t-137.5 -91t-167 -33.5q-86 0 -163.5 32.5 t-136 89t-92.5 132t-36 161.5zM186 408q0 -72 27 -133.5t74 -107.5t108.5 -72.5t132.5 -26.5q70 0 133.5 26.5t110.5 72.5t74.5 107.5t27.5 133.5q0 70 -27.5 132t-74.5 109t-110.5 74t-133.5 27q-72 0 -133 -27t-108 -74t-74 -109t-27 -132z" />
<glyph unicode="7" horiz-adv-x="960" d="M29 1124v207h831l-598 -1331h-100l563 1247h-614v-123h-82z" />
<glyph unicode="8" horiz-adv-x="1044" d="M94 412q0 135 76 238.5t195 148.5q-70 33 -112 98.5t-42 146.5q0 61 23.5 117t65.5 97.5t97.5 65.5t118.5 24t120.5 -25t98.5 -67t65.5 -97t24.5 -119q0 -80 -42 -143t-107 -98q59 -23 110.5 -61t88 -88t57 -110.5t20.5 -127.5q0 -88 -34.5 -166t-93 -136.5t-137.5 -92 t-167 -33.5t-164.5 33.5t-135 92t-92.5 136.5t-34 166zM182 412q0 -70 25.5 -132.5t72 -110.5t106.5 -75.5t132 -27.5t135.5 27.5t110.5 75.5t74.5 110.5t27.5 132.5t-27.5 130t-73.5 106t-109.5 74t-133.5 28q-72 0 -134 -27t-108.5 -73t-72 -107t-25.5 -131zM297 1036 q0 -43 17.5 -80.5t48 -64.5t70.5 -42t87 -15q94 0 156.5 57t62.5 145q0 45 -16 86t-46 73t-70 50.5t-87 18.5t-87 -18.5t-70.5 -50.5t-48 -73t-17.5 -86z" />
<glyph unicode="9" horiz-adv-x="1075" d="M88 874q0 88 34 165t92 134.5t137 91t167 33.5t167 -33.5t137.5 -91t92 -134.5t33.5 -165q0 -145 -63.5 -272t-162.5 -237.5t-220 -204.5t-234 -176q-14 16 -27.5 33.5t-27.5 33.5q217 145 343 274.5t181 225.5q-39 -47 -96 -73.5t-123 -26.5q-88 0 -167 32.5t-137 90 t-92 135t-34 165.5zM174 874q0 -72 27.5 -133t75 -108t110 -74t133.5 -27q70 0 132.5 27t108.5 74t72.5 108t26.5 133q0 70 -26.5 132.5t-72.5 108.5t-108.5 72.5t-132.5 26.5q-72 0 -134 -26.5t-109.5 -72.5t-75 -108.5t-27.5 -132.5z" />
<glyph unicode=":" horiz-adv-x="358" d="M106 68q0 29 20.5 48t47.5 19t46.5 -19.5t19.5 -47.5q0 -29 -19.5 -48.5t-46.5 -19.5t-47.5 19.5t-20.5 48.5zM106 580q0 29 20.5 48t47.5 19t46.5 -19.5t19.5 -47.5q0 -29 -19.5 -48.5t-46.5 -19.5t-47.5 19.5t-20.5 48.5z" />
<glyph unicode=";" horiz-adv-x="411" d="M4 -246q41 106 79 211t79 211h98q-45 -106 -88 -210.5t-88 -211.5h-80zM160 580q0 29 20.5 48t46.5 19q27 0 47.5 -19.5t20.5 -47.5q0 -29 -20.5 -48.5t-47.5 -19.5t-47 19.5t-20 48.5z" />
<glyph unicode="&#x3c;" horiz-adv-x="1392" d="M236 487q225 129 448 259.5t449 259.5v-113q-176 -102 -351.5 -202.5t-353.5 -203.5q178 -102 353.5 -202.5t351.5 -202.5v-113q-225 129 -448.5 259t-448.5 259z" />
<glyph unicode="=" horiz-adv-x="1449" d="M205 276v84h1036v-84h-1036zM205 674v84h1036v-84h-1036z" />
<glyph unicode="&#x3e;" horiz-adv-x="1331" d="M236 -31v113q178 102 353 202.5t351 202.5q-176 102 -351 203t-353 203v113q225 -129 448 -259.5t449 -259.5q-225 -129 -448.5 -259t-448.5 -259z" />
<glyph unicode="?" horiz-adv-x="925" d="M72 1210q18 53 51 104.5t81 92.5t112.5 66.5t146.5 25.5q84 0 157.5 -31.5t128 -86t85 -127t30.5 -154.5q0 -111 -54 -196t-146 -150q-35 -27 -69 -47.5t-60.5 -46t-43 -64.5t-16.5 -100v-160h-86v199q0 63 22.5 103t58.5 70.5t82 58.5t95 69q68 55 99.5 121.5 t31.5 142.5q0 68 -23.5 125t-66.5 100t-100.5 66.5t-124.5 23.5q-119 0 -200 -61t-116 -170q-18 8 -37.5 14t-37.5 12zM365 98q0 29 21.5 48.5t45.5 19.5q25 0 45.5 -19.5t20.5 -48.5t-20.5 -48t-45.5 -19t-46 19.5t-21 47.5z" />
<glyph unicode="@" horiz-adv-x="2027" d="M168 387q0 172 65.5 323.5t179 264t265 178.5t323.5 66t324 -66t264.5 -178.5t178 -264t65.5 -325.5q-6 -117 -37 -191.5t-77 -117.5t-101 -59.5t-109 -16.5h-184v82q0 25 1 48.5t1 45.5q-14 -35 -44 -69.5t-72 -61.5t-96 -43t-116 -16q-84 0 -157.5 31.5t-128 85 t-86 126t-31.5 156.5q0 82 31.5 154.5t86 127t128 86t157.5 31.5q59 0 111.5 -17t95.5 -45t74 -62.5t45 -71.5q0 45 3 90t5 90h70v-686h115q98 0 161.5 71.5t67.5 231.5q0 156 -58.5 293t-160 238.5t-237.5 160t-290 58.5q-156 0 -292 -58.5t-237 -160t-159.5 -238.5 t-58.5 -293t58.5 -291t159.5 -236.5t237.5 -159.5t291.5 -58q123 0 235 36.5t206 102.5q14 -16 26.5 -30.5t24.5 -31.5q-102 -78 -229 -119.5t-263 -41.5q-172 0 -323.5 65.5t-265 178t-179 264t-65.5 323.5zM682 385q0 -66 24.5 -123t66.5 -100t100.5 -67.5t125.5 -24.5 q68 0 126.5 24.5t100.5 67.5t66.5 100t24.5 123t-24.5 124t-66.5 101t-100.5 67.5t-126.5 24.5t-126 -24.5t-100 -67.5t-66.5 -101t-24.5 -124z" />
<glyph unicode="A" horiz-adv-x="1662" d="M72 0v82h157q152 356 302.5 708.5t299.5 708.5q150 -356 300.5 -708.5t300.5 -708.5h159v-82h-395v82h150q-57 133 -112.5 265t-113.5 267h-577q-57 -135 -112.5 -267t-113.5 -265h150v-82h-395zM580 696h503l-233 555l-19 58q-4 -6 -10 -31q-4 -12 -10 -27 q-20 -53 -48 -119.5t-58.5 -139t-62.5 -148.5t-62 -148z" />
<glyph unicode="B" horiz-adv-x="1077" d="M72 0v82h125v1270h-125v82h452q96 0 175 -20.5t135.5 -63.5t87 -112t30.5 -163q0 -127 -62.5 -223t-191.5 -131q61 -12 116.5 -41t97.5 -74t68 -104.5t26 -132.5q0 -92 -37 -161t-99.5 -115t-142.5 -69.5t-166 -23.5h-489zM281 82h272q76 0 142.5 18.5t116.5 55.5t80 91 t30 128q0 80 -34 137t-90.5 95t-129 55.5t-150.5 17.5h-237v-598zM281 762h270q145 0 231 85t86 222q0 76 -23.5 130t-66.5 88t-103.5 49.5t-131.5 15.5h-262v-590z" />
<glyph unicode="C" horiz-adv-x="1249" d="M72 715q0 152 57 286t156.5 233t232.5 157.5t285 58.5q104 0 197.5 -26.5t177.5 -75.5v-230h-82v176q-66 35 -140.5 54.5t-152.5 19.5q-133 0 -251 -52t-206 -141.5t-138 -208t-50 -253.5q0 -133 50 -251t138 -206t204 -139t249 -51q92 0 174 23.5t155 66.5l48 -70 q-82 -47 -175.5 -74.5t-197.5 -27.5q-152 0 -285 57t-232.5 156.5t-156.5 232.5t-57 285z" />
<glyph unicode="D" horiz-adv-x="1294" d="M72 0v82h129v1270h-129v82h430q147 0 278 -50.5t229.5 -143.5t156 -226t57.5 -297q0 -121 -42 -248t-136.5 -231.5t-245 -171t-367.5 -66.5h-360zM285 82h178q170 0 297 54t211 143.5t126 203t42 234.5q0 145 -50.5 263t-137.5 201t-202.5 127t-246.5 44h-217v-1270z" />
<glyph unicode="E" horiz-adv-x="1169" d="M72 0v82h147v1270h-147v82h997v-316h-82v234h-684v-588h686v-82h-686v-600h713v233h82v-315h-1026z" />
<glyph unicode="F" horiz-adv-x="1140" d="M72 0v82h147v1270h-147v82h997v-316h-82v234h-684v-588h686v-82h-686v-600h180v-82h-411z" />
<glyph unicode="G" horiz-adv-x="1247" d="M72 711q0 152 57 285.5t156.5 233t232.5 158t285 58.5q104 0 197.5 -26.5t177.5 -76.5l-48 -69q-72 43 -154.5 66.5t-172.5 23.5q-133 0 -251 -52t-206 -141.5t-138 -208t-50 -253.5q0 -133 50 -251t138 -206t204 -139.5t249 -51.5q156 0 291 70v397h-295v82h381v-528 q-82 -47 -175.5 -74.5t-197.5 -27.5q-152 0 -285 57t-232.5 156.5t-156.5 232.5t-57 285z" />
<glyph unicode="H" horiz-adv-x="1511" d="M72 0v82h159v1270h-159v82h411v-82h-168v-588h881v588h-168v82h412v-82h-158v-1270h158v-82h-412v82h168v600h-881v-600h168v-82h-411z" />
<glyph unicode="I" horiz-adv-x="555" d="M72 0v82h159v1270h-159v82h411v-82h-168v-1270h168v-82h-411z" />
<glyph unicode="J" horiz-adv-x="567" d="M72 -211q74 4 136 32.5t107 80t71 124t26 164.5v1162h-340v82h424v-1250q0 -115 -33 -201.5t-90.5 -147t-135 -93.5t-165.5 -35v82z" />
<glyph unicode="K" horiz-adv-x="1404" d="M72 0v82h157v1270h-157v82h395v-82h-152v-561q-2 -16 -3 -31t-1 -31l37 43l606 580h-108v82h395v-82h-176l-514 -490q154 -197 307.5 -391.5t306.5 -388.5h168v-82h-395v82h123q-141 180 -283.5 361.5t-285.5 363.5l-179 -170q0 -139 1 -277.5t1 -277.5h168v-82h-411z " />
<glyph unicode="L" horiz-adv-x="1163" d="M72 0v82h141v1270h-141v82h395v-82h-170v-1270h713v233h82v-315h-1020z" />
<glyph unicode="M" horiz-adv-x="1980" d="M72 0v82h166v1270h-166v82h215q23 -31 67.5 -89.5t103 -134t126 -165t138.5 -180.5t139.5 -179t125.5 -164q176 227 350.5 456t350.5 456h215v-82h-166v-1270h172v-82h-412v82h154v1096q0 2 1 14t2 25.5t1 25.5v17q-6 -10 -15.5 -23.5t-21.5 -30.5q-45 -61 -122 -161.5 t-165 -215t-179 -232.5t-165 -214q-141 184 -239.5 313t-171 224.5t-127 165t-105.5 135.5l-25 39q0 -23 1.5 -42.5t3.5 -39.5v-1096h159v-82h-411z" />
<glyph unicode="N" horiz-adv-x="1732" d="M72 0v82h166v1270h-166v82h221l1077 -1254l39 -53l-6 66v1159h-154v82h412v-82h-172v-1418l-1133 1309l-39 45l7 -57v-1149h159v-82h-411z" />
<glyph unicode="O" horiz-adv-x="1609" d="M72 715q0 152 57 286t156.5 233t232.5 157.5t285 58.5t286 -58.5t233 -157.5t157.5 -233.5t58.5 -285.5q0 -152 -58.5 -285t-157.5 -232.5t-233.5 -156.5t-285.5 -57q-152 0 -285 57t-232.5 156.5t-156.5 232.5t-57 285zM158 713q0 -135 50 -253t138 -205t205 -138 t250 -51t251.5 51t208 139t140.5 206t51 253t-51 253.5t-139 208t-207 140.5t-252 51t-251 -52t-206 -141.5t-138 -208t-50 -253.5z" />
<glyph unicode="P" horiz-adv-x="1013" d="M72 0v82h125v1270h-125v82h432q63 0 139 -20.5t142.5 -65.5t111.5 -117t45 -172q0 -176 -111.5 -280.5t-322.5 -104.5h-227v-592h202v-82h-411zM281 758h213q106 0 176.5 28.5t112.5 73.5t58.5 97.5t16.5 101.5q0 57 -27.5 110.5t-76.5 94.5t-116 64.5t-142 23.5h-215 v-594z" />
<glyph unicode="Q" horiz-adv-x="1654" d="M72 715q0 152 57 286t156.5 233t232.5 157.5t285 58.5t286 -58.5t233 -157.5t157.5 -233.5t58.5 -285.5q0 -104 -28.5 -200.5t-80 -177.5t-124 -146.5t-158.5 -108.5h436v-82h-629q-78 -16 -151 -16q-152 0 -285 57t-232.5 156.5t-156.5 232.5t-57 285zM158 713 q0 -133 50 -251t138 -206t204 -139t249 -51q135 0 253.5 51t208 139t140.5 206t51 253t-51 253.5t-139 208t-207 140.5t-252 51t-251 -52t-206 -141.5t-138 -208t-50 -253.5z" />
<glyph unicode="R" horiz-adv-x="1171" d="M72 0v82h125v1270h-125v82h432q63 0 139 -20.5t142.5 -65.5t111.5 -117t45 -172q0 -147 -79 -244.5t-228 -128.5l285 -604h180v-82h-234l-319 678q-23 -2 -47.5 -3t-46.5 -1h-172v-592h202v-82h-411zM281 758h213q106 0 176.5 28.5t112.5 73.5t58.5 97.5t16.5 101.5 q0 57 -27.5 110.5t-76.5 94.5t-116 64.5t-142 23.5h-215v-594z" />
<glyph unicode="S" horiz-adv-x="978" d="M74 156v217h82v-185q57 -51 139 -86.5t194 -35.5q68 0 132.5 21.5t113.5 61t79 97t30 131.5q0 90 -31 147.5t-80 94t-112.5 59t-130 42t-131 42t-117 59.5t-85 93.5t-36.5 144.5q-1 11 -1 22q0 57 18 115q20 68 65 122t116.5 89t174.5 35q35 0 75.5 -4t83.5 -14.5t86 -31 t82 -53.5v-221h-82v180q-39 25 -101.5 43.5t-145.5 18.5q-72 0 -125.5 -23.5t-89 -63.5t-53 -92.5t-17.5 -107.5q0 -74 30.5 -121t81 -77.5t115 -51t132 -41t132 -48t115.5 -72t83 -112t34 -169.5q0 -90 -34 -164t-92.5 -126t-138 -79.5t-167.5 -27.5q-80 0 -147.5 16 t-122 42t-93 56.5t-61.5 57.5z" />
<glyph unicode="T" horiz-adv-x="1275" d="M72 1118v316h1132v-316h-82v234h-442v-1270h160v-82h-412v82h168v1270h-442v-234h-82z" />
<glyph unicode="U" horiz-adv-x="1425" d="M72 1352v82h411v-82h-168v-883q0 -98 30 -173t82 -126t125 -77.5t161 -26.5q86 0 158.5 26.5t126 77.5t83 126t29.5 173v883h-168v82h412v-82h-158v-889q0 -117 -37 -207t-102.5 -150.5t-153.5 -91t-190 -30.5q-104 0 -192.5 30.5t-153 91t-101.5 150.5t-37 207v889h-157 z" />
<glyph unicode="V" horiz-adv-x="1699" d="M72 1352v82h411v-82h-151q123 -295 246.5 -586t248.5 -584l19 -57l18 57q123 293 247 584t247 586h-141v82h411v-82h-182q-150 -356 -300.5 -708.5t-299.5 -709.5q-152 356 -302.5 708.5t-299.5 709.5h-172z" />
<glyph unicode="W" horiz-adv-x="2463" d="M72 1352v82h411v-82h-151q123 -295 244.5 -586t250.5 -584l19 -57q68 205 160 407.5t178 403.5q-43 104 -87 207.5t-89 208.5h-172v82h411v-82h-153q123 -295 245.5 -586t249.5 -584l19 -57l18 57q125 293 249 584t247 586h-142v82h412v-82h-184q-150 -356 -299.5 -708.5 t-300.5 -709.5l-363 854l-18 56q-82 -227 -184.5 -456.5t-196.5 -453.5q-152 356 -302.5 708.5t-299.5 709.5h-172z" />
<glyph unicode="X" horiz-adv-x="1441" d="M72 0v82h170l422 653l-402 617h-190v82h411v-82h-116q86 -129 168.5 -258t166.5 -258l21 -37l20 37l332 516h-119v82h414v-82h-192q-100 -160 -200.5 -314.5t-203.5 -312.5q104 -162 210 -321.5t210 -321.5h176v-82h-414v82h131l-307 473q-16 25 -32.5 53.5t-32.5 53.5 l-21 -39q-88 -137 -175 -271.5t-173 -269.5h137v-82h-411z" />
<glyph unicode="Y" horiz-adv-x="1527" d="M72 1352v82h411v-82h-149q205 -338 405 -676l25 -58h2l22 58l404 676h-148v82h412v-82h-160q-121 -205 -240.5 -406t-240.5 -403v-461h160v-82h-412v82h152v461q-123 203 -243 404.5t-241 404.5h-159z" />
<glyph unicode="Z" horiz-adv-x="1288" d="M72 0v82l977 1270h-943v153h87v-71h964v-82l-977 -1270h955v330h82v-412h-1145z" />
<glyph unicode="[" horiz-adv-x="692" d="M170 -305v1833h358v-84h-270v-1665h270v-84h-358z" />
<glyph unicode="\" horiz-adv-x="708" d="M20 1507h95q143 -389 284.5 -773t284.5 -773h-94q-143 389 -284.5 773t-285.5 773z" />
<glyph unicode="]" horiz-adv-x="700" d="M156 -221h270v1665h-270v84h358v-1833h-358v84z" />
<glyph unicode="^" horiz-adv-x="962" d="M229 981q61 92 123 185.5t123 185.5q61 -92 122.5 -185.5t123.5 -185.5h-68q-45 61 -89 123.5t-89 124.5q-45 -61 -89 -124t-89 -124h-68z" />
<glyph unicode="_" horiz-adv-x="1228" d="M205 0v84h819v-84h-819z" />
<glyph unicode="`" horiz-adv-x="409" d="M-59 1253h88q47 -68 92 -136t92 -136h-68q-51 68 -102 136.5t-102 135.5z" />
<glyph unicode="a" d="M72 385q0 82 31.5 154.5t86 127t128 86t157.5 31.5q59 0 112.5 -17t96.5 -45t72.5 -63.5t44.5 -70.5q0 45 3 90t5 90h70v-686h151v-82h-229v82q0 25 1 48.5t1 45.5q-14 -35 -44 -69.5t-72 -61.5t-96 -43t-116 -16q-84 0 -157.5 31.5t-128 85t-86 126t-31.5 156.5z M158 385q0 -66 24.5 -123t66.5 -100t100.5 -67.5t125.5 -24.5q68 0 125 24.5t100 67.5t68 100t25 123t-25 124t-68 101t-100 67.5t-125 24.5t-126 -24.5t-100 -67.5t-66.5 -101t-24.5 -124z" />
<glyph unicode="b" d="M72 0v82h151v1372h-143v82h229v-846q-2 -25 -4 -50.5t-4 -49.5q14 37 44 71.5t73 62.5t96 44t113 16q84 0 157.5 -31.5t128 -86t86 -127t31.5 -154.5q0 -84 -31.5 -156.5t-86 -126t-128 -85t-157.5 -31.5q-61 0 -115.5 16t-96.5 43t-72 61.5t-44 69.5q0 -23 1 -46.5 t1 -47.5v-82h-229zM309 385q0 -66 24.5 -123t67.5 -100t100.5 -67.5t125.5 -24.5t126 24.5t100 67.5t66.5 100t24.5 123t-24.5 124t-66.5 101t-100.5 67.5t-125.5 24.5q-68 0 -125.5 -24.5t-100.5 -67.5t-67.5 -101t-24.5 -124z" />
<glyph unicode="c" horiz-adv-x="800" d="M72 385q0 82 31.5 155.5t86 127t127 85t156.5 31.5q74 0 139.5 -23.5t116.5 -64.5v-200h-78v151q-39 27 -83 41t-95 14q-68 0 -125 -24.5t-99 -67.5t-66.5 -101t-24.5 -124t24.5 -123t66.5 -100t99.5 -67.5t124.5 -24.5q117 0 201 67l53 -63q-53 -41 -116.5 -64.5 t-137.5 -23.5q-84 0 -156.5 31.5t-127 85t-86 126t-31.5 156.5z" />
<glyph unicode="d" d="M72 385q0 82 31.5 154.5t86 127t128 86t157.5 31.5q59 0 111.5 -16t95.5 -44t73.5 -62.5t45.5 -71.5l-4 86l-4 86v692h-144v82h230v-1454h151v-82h-229v82q0 25 1 48.5t1 45.5q-14 -35 -44 -69.5t-72 -61.5t-96 -43t-116 -16q-84 0 -157.5 31.5t-128 85t-86 126 t-31.5 156.5zM158 385q0 -66 24.5 -123t66.5 -100t100.5 -67.5t125.5 -24.5q68 0 125 24.5t100 67.5t68 100t25 123t-25 124t-68 101t-100 67.5t-125 24.5t-126 -24.5t-100 -67.5t-66.5 -101t-24.5 -124z" />
<glyph unicode="e" horiz-adv-x="903" d="M72 385q0 82 31.5 155.5t86 127t127 85t156.5 31.5q61 0 116.5 -21.5t101.5 -59t81 -90t53 -115.5q-160 -63 -317.5 -126t-317.5 -126q35 -78 111 -127t172 -49q63 0 118.5 22.5t96.5 63.5q14 -16 26.5 -31.5t26.5 -32.5q-53 -49 -120.5 -77.5t-147.5 -28.5 q-84 0 -156.5 31.5t-127 85t-86 126t-31.5 156.5zM166 326q137 55 274.5 109t276.5 110q-35 70 -100.5 113.5t-143.5 43.5q-76 0 -138.5 -31.5t-105.5 -83.5t-60 -121q-9 -38 -9 -76q0 -32 6 -64z" />
<glyph unicode="f" horiz-adv-x="620" d="M72 0v82h125v602h-125v84h125v293q0 113 32.5 201t90 147t135 91t166.5 36v-82q-70 -2 -132.5 -28.5t-108.5 -78t-72.5 -123t-26.5 -161.5v-295h256v-84h-256v-602h186v-82h-395z" />
<glyph unicode="g" horiz-adv-x="1103" d="M72 385q0 82 31.5 154.5t86 127t128 86t157.5 31.5q59 0 112.5 -17t96.5 -45t72.5 -63.5t44.5 -70.5q0 45 3 90t5 90h223v-82h-153v-758q0 -100 -31 -181t-84 -138.5t-124 -88t-153 -32.5q-86 2 -173 32.5t-142 90.5l61 63q45 -49 115 -73.5t137 -24.5q63 0 120 25.5 t97.5 72.5t65.5 114t25 146v148q2 23 4 46.5t4 45.5q-16 -37 -46 -70.5t-72 -59.5t-95 -42t-113 -16q-84 0 -157.5 31.5t-128 85t-86 126t-31.5 156.5zM158 385q0 -66 24.5 -123t66.5 -100t100.5 -67.5t125.5 -24.5q68 0 125 24.5t100 67.5t68 100t25 123t-25 124t-68 101 t-100 67.5t-125 24.5t-126 -24.5t-100 -67.5t-66.5 -101t-24.5 -124z" />
<glyph unicode="h" horiz-adv-x="1116" d="M72 0v82h159v1372h-151v82h235v-874l-6 -93q43 98 132 154.5t206 60.5q113 0 178.5 -63.5t69.5 -165.5v-473h149v-82h-395v82h160v450q-4 66 -48 115t-130 53q-61 0 -118.5 -21.5t-101.5 -58t-70 -88t-26 -112.5v-338h152v-82h-395z" />
<glyph unicode="i" horiz-adv-x="538" d="M72 0v82h157v604h-157v82h243v-686h152v-82h-395zM207 1040q0 29 20.5 48.5t46.5 19.5q25 0 45.5 -19.5t20.5 -48.5t-20.5 -48t-45.5 -19q-27 0 -47 19t-20 48z" />
<glyph unicode="j" horiz-adv-x="376" d="M72 686v82h233v-776q0 -121 -36 -211t-99 -150l-61 62q53 51 82.5 124.5t29.5 172.5v696h-149zM199 1040q0 29 20.5 48.5t46.5 19.5q27 0 46.5 -19.5t19.5 -48.5t-19.5 -48t-46.5 -19t-47 19t-20 48z" />
<glyph unicode="k" horiz-adv-x="1030" d="M72 0v82h151v1372h-145v82h229v-1147l318 297h-123v82h379v-82h-148q-63 -59 -115.5 -110.5t-115.5 -110.5q68 -98 137.5 -192.5t140.5 -190.5h178v-82h-378v82h98q-59 82 -119.5 163t-120.5 163l-131 -123v-203h160v-82h-395z" />
<glyph unicode="l" horiz-adv-x="538" d="M72 0v82h151v1372h-145v82h229v-1454h160v-82h-395z" />
<glyph unicode="m" horiz-adv-x="1695" d="M72 0v82h159v604h-147v82h217l2 -72q2 -35 4 -63.5t2 -63.5q43 98 132 155.5t206 59.5q104 0 169 -56t77 -148q43 92 131 147t201 57q113 0 178 -63.5t70 -165.5v-473h151v-82h-395v82h160v450q-4 66 -48.5 115t-130.5 53q-61 0 -118.5 -20.5t-100.5 -57t-68.5 -87 t-27.5 -109.5v-344h152v-82h-398v82h160v450q-4 66 -48 115t-130 53q-61 0 -118.5 -21.5t-101.5 -58t-70 -88t-26 -112.5v-338h152v-82h-395z" />
<glyph unicode="n" horiz-adv-x="1116" d="M72 0v82h159v604h-147v82h217l2 -72q2 -35 4 -63.5t2 -63.5q41 96 132 155.5t206 59.5q113 0 178.5 -63.5t69.5 -165.5v-473h149v-82h-395v82h160v450q-4 66 -48 115t-130 53q-61 0 -118.5 -21.5t-101.5 -58t-70 -88t-26 -112.5v-338h152v-82h-395z" />
<glyph unicode="o" horiz-adv-x="952" d="M74 385q0 82 31.5 155.5t86 128t127 86t156.5 31.5t158 -31.5t129 -86t87 -128t32 -155.5q0 -84 -32 -156.5t-87 -126t-129 -85t-158 -31.5t-156.5 31.5t-127 85t-86 126t-31.5 156.5zM158 385q0 -66 24.5 -123t67.5 -100t100.5 -67.5t122.5 -24.5q66 0 124 24.5 t101 67.5t68 100t25 123t-25 123t-68 100t-101 68.5t-124 25.5t-123 -25.5t-100 -68.5t-67.5 -100t-24.5 -123z" />
<glyph unicode="p" d="M72 686v82h221q0 -45 3 -92t5 -92q14 37 44 72.5t73 63.5t97 45t114 17q84 0 157.5 -31.5t128 -85t85 -127t30.5 -155.5t-30.5 -154.5t-85 -127t-128 -86t-157.5 -31.5q-61 0 -114.5 16t-95.5 42t-72 59.5t-44 70.5q2 -20 4 -40.5t4 -41.5v-520h172v-82h-395v82h137v1116 h-153zM309 383q0 -66 24.5 -124t67.5 -101t101.5 -67.5t126.5 -24.5t125 24.5t99 67.5t66.5 101t24.5 124q0 68 -24.5 125t-66.5 99t-99.5 66.5t-124.5 24.5q-68 0 -126.5 -24.5t-101.5 -66.5t-67.5 -99t-24.5 -125z" />
<glyph unicode="q" horiz-adv-x="1105" d="M72 383q0 82 31.5 155.5t86 127t128 85t157.5 31.5q59 0 112.5 -17t96.5 -45t73.5 -63.5t45.5 -72.5q0 45 3 91t3 93h225v-82h-155v-1116h139v-82h-397v82h172v520q0 20 3 41t5 41q-16 -37 -46 -70.5t-72 -59.5t-95 -42t-113 -16q-84 0 -157.5 31.5t-128 86t-86 127 t-31.5 154.5zM158 383q0 -66 24.5 -124t66.5 -101t100.5 -67.5t125.5 -24.5q68 0 125 24.5t100 67.5t68 101t25 124q0 68 -25 125t-68 99t-100 66.5t-125 24.5t-126 -24.5t-100 -66.5t-66.5 -99t-24.5 -125z" />
<glyph unicode="r" horiz-adv-x="704" d="M72 0v82h159v604h-147v82h217l2 -72q2 -35 4 -63.5t2 -63.5q47 100 138.5 156.5t185.5 58.5l-6 -84q-66 -2 -122 -23.5t-98 -58t-67 -88t-25 -110.5v-338h152v-82h-395z" />
<glyph unicode="s" horiz-adv-x="659" d="M106 59v152h78v-105q37 -27 81 -32.5t87 -5.5q18 0 45 7t51.5 24.5t43 44t18.5 65.5q0 53 -26.5 81.5t-68.5 46t-91.5 31t-91.5 36t-70.5 59.5t-28.5 104q0 53 20.5 93t52.5 67t71.5 40t76.5 13q8 0 34 -2t58.5 -9t64.5 -21.5t54 -38.5v-152h-78v109q-14 12 -34.5 18 t-40 9t-35 3h-21.5q-25 0 -49 -7t-44.5 -22.5t-32 -39t-11.5 -58.5q0 -45 28.5 -70.5t70.5 -43t90.5 -32.5t90.5 -40t69.5 -63.5t27.5 -104.5q0 -35 -13.5 -75t-42 -74.5t-76.5 -58t-116 -23.5q-20 0 -52 3t-66.5 11t-67.5 22.5t-56 38.5z" />
<glyph unicode="t" horiz-adv-x="643" d="M72 684v84h178v500h86v-500h235v-84h-235v-602h168v-82h-254v684h-178z" />
<glyph unicode="u" horiz-adv-x="1103" d="M72 686v82h235v-532q4 -66 48 -115t130 -53q63 0 121 21.5t101 58t68.5 88t25.5 112.5v338h-152v82h238v-694h145v-74h-221l-4 106v93q-41 -98 -132 -156.5t-204 -58.5t-178.5 63.5t-69.5 165.5v473h-151z" />
<glyph unicode="v" horiz-adv-x="1204" d="M72 686v82h379v-82h-134q76 -143 150 -288.5t139 -288.5q61 135 136 282.5t151 294.5h-119v82h359v-82h-150q-94 -186 -188.5 -367.5t-188.5 -365.5q-96 184 -189 365.5t-188 367.5h-157z" />
<glyph unicode="w" horiz-adv-x="1736" d="M72 686v82h366v-82h-119q72 -145 144 -289.5t137 -287.5q49 106 100.5 211.5t104.5 211.5q-10 39 -20.5 77t-20.5 77h-131v82h379v-82h-135q72 -145 143.5 -289.5t136.5 -287.5q68 145 138.5 288.5t142.5 288.5h-119v82h346v-82h-141q-92 -186 -183.5 -367.5 t-183.5 -365.5l-278 557l-279 -557q-92 184 -183 365.5t-184 367.5h-161z" />
<glyph unicode="x" horiz-adv-x="1030" d="M72 0v82h151l228 313q-53 72 -107.5 144.5t-107.5 146.5h-164v82h395v-82h-127l182 -248l178 248h-118v82h376v-82h-155l-230 -315q53 -74 106.5 -145.5t106.5 -143.5h172v-82h-395v82h117q-45 61 -89 121.5t-87 120.5q-45 -59 -88 -121t-86 -121h119v-82h-377z" />
<glyph unicode="y" horiz-adv-x="1230" d="M72 686v82h379v-82h-129q76 -154 152.5 -304.5t146.5 -303.5q66 147 143.5 300.5t155.5 307.5h-119v82h358v-82h-149q-141 -281 -278.5 -558.5t-278.5 -557.5h131v-82h-396v82h174q53 106 106.5 213.5t106.5 212.5q-88 174 -174 345t-172 345h-157z" />
<glyph unicode="z" horiz-adv-x="882" d="M72 0v84q154 154 291 301t290 301h-557v154h78v-72h598v-84q-154 -154 -291 -300t-291 -300h543v109h78v-193h-739z" />
<glyph unicode="{" horiz-adv-x="595" d="M61 563v94q49 2 81 30t50.5 69t24.5 89t6 89v352q0 94 16.5 143.5t45 71t64.5 24.5t77 3h96v-84h-106q-63 0 -85 -48t-22 -173v-291q0 -84 -12 -138.5t-30.5 -90t-42 -56t-48.5 -35.5q25 -14 48.5 -35.5t42 -58.5t30.5 -91t12 -136v-289q0 -127 21.5 -175t85.5 -48h106 v-82h-96q-43 0 -81 3t-64.5 28.5t-42 84t-15.5 169.5v305q0 41 -6 89t-24.5 89t-50.5 68.5t-81 29.5z" />
<glyph unicode="|" horiz-adv-x="491" d="M197 -475v1909h86v-1909h-86z" />
<glyph unicode="}" horiz-adv-x="655" d="M133 -221h107q63 0 84.5 48t21.5 175v336q0 66 13.5 113t34 78.5t44 51t41.5 31.5q-25 14 -48 35t-41.5 56.5t-31 90t-12.5 138.5v291q0 125 -21.5 173t-84.5 48h-107v84h96q39 0 76 -2t64.5 -23.5t45 -72t17.5 -144.5v-307q0 -37 3 -91t19.5 -104.5t48.5 -87.5t91 -39 v-94q-59 -4 -91 -40t-48.5 -86t-19.5 -104t-3 -91v-303q0 -96 -16.5 -145.5t-45 -71t-65.5 -23.5t-76 -2h-96v82z" />
<glyph unicode="~" horiz-adv-x="1001" d="M262 963q2 39 18.5 67.5t41 48t55.5 28.5t59 9q43 0 79 -19.5t69 -54.5t57.5 -46t52.5 -11q14 0 35 4t39 15.5t31.5 32t17.5 53.5q14 -2 27.5 -2.5t25.5 -2.5q-2 -39 -18 -67.5t-41 -48t-55.5 -28.5t-59.5 -9q-43 0 -78.5 19.5t-70.5 54.5q-31 35 -55.5 46t-53.5 11 q-16 0 -35.5 -4t-38 -15.5t-33 -32t-18.5 -53.5q-12 2 -25.5 2.5t-25.5 2.5z" />
<glyph unicode="&#xa1;" horiz-adv-x="409" d="M139 993q0 -29 20.5 -48t45.5 -19t45 19.5t20 47.5q0 29 -20 48.5t-45 19.5t-45.5 -19.5t-20.5 -48.5zM162 -430h86v1196h-86v-1196z" />
<glyph unicode="&#xa2;" horiz-adv-x="788" d="M74 385q0 74 25.5 141.5t70.5 119.5t107.5 87t134.5 45v119h86v-113q66 -4 126 -26.5t107 -61.5l-2 -2q0 -6 1 -11t1 -11v-178h-78v153q-35 23 -73.5 37t-81.5 14v-628q100 6 178 67l53 -63q-98 -80 -231 -86v-127h-86v133q-72 10 -134.5 45t-107.5 87t-70.5 118.5 t-25.5 140.5zM160 385q0 -117 70.5 -201t181.5 -104v608q-55 -8 -101.5 -34.5t-80 -67.5t-52 -92.5t-18.5 -108.5z" />
<glyph unicode="&#xa3;" horiz-adv-x="1175" d="M55 0v84h90q35 0 56.5 12.5t33 42t14.5 80.5t3 131v256h-133v84h133v334q0 143 101.5 208.5t275.5 65.5q137 0 211.5 -54t115.5 -136l-63 -39q-20 35 -42 61.5t-51.5 45t-70.5 28.5t-100 10q-160 0 -225.5 -54t-65.5 -148v-322h254v-84h-254v-338q0 -59 -7 -107t-38 -77 h665v213h86v-297h-989z" />
<glyph unicode="&#xa4;" horiz-adv-x="1024" d="M203 489l71 72q-61 78 -61 178q0 47 14.5 91t40.5 79q-16 16 -32.5 34t-32.5 34l61 59l66 -65q37 29 81 45t95 16t96 -17.5t80 -45.5l66 67l61 -61l-66 -64q57 -76 58 -172q0 -98 -62 -176l70 -71l-59 -60q-18 16 -36 34.5t-36 35.5q-35 -27 -80 -41.5t-92 -14.5 t-91 14.5t-79 39.5l-72 -70zM299 739q0 -43 16.5 -82t45 -67.5t65.5 -45t80 -16.5t82 16.5t66.5 45t44 67.5t16.5 82t-16.5 81t-44 66.5t-66.5 45t-82 16.5t-80 -16.5t-65.5 -45t-45 -66.5t-16.5 -81z" />
<glyph unicode="&#xa5;" horiz-adv-x="1306" d="M27 1352v82h411v-82h-149q102 -170 205.5 -337t199.5 -339l25 -58h2l22 58l404 676h-148v82h412v-82h-160q-111 -184 -217 -365.5t-217 -363.5h244v-84h-291v-23v-227h291v-84h-291v-123h160v-82h-412v82h152v123h-291v84h291v248q-2 0 -2 2h-289v84h244l-437 729h-159z " />
<glyph unicode="&#xa6;" horiz-adv-x="440" d="M182 240h86v-717h-86v717zM182 717v717h86v-717h-86z" />
<glyph unicode="&#xa7;" horiz-adv-x="1024" d="M274 735q0 45 15.5 90t45.5 80t70.5 57.5t92.5 22.5q23 0 43 -4t41 -10q-31 49 -60.5 101t-54.5 101.5t-40 90.5t-15 67q0 37 18.5 64.5t47 50t62 41t64.5 35.5l43 -72l-92 -55q-27 -16 -39 -32.5t-12 -41.5q0 -27 24.5 -80t61.5 -117.5t79 -134t76 -127.5 q35 -57 35 -127q0 -45 -16 -89t-47 -80t-73 -58.5t-93 -22.5q-43 0 -80 15q31 -51 61.5 -104.5t55 -101.5t40 -89t15.5 -68q0 -37 -18.5 -64.5t-46 -50t-61.5 -41t-64 -34.5l-43 71l92 56q49 27 49 71q0 29 -16.5 68t-51.5 98q-63 100 -103 164t-63.5 109t-33 78.5 t-9.5 72.5zM358 741q1 -32 13 -63q16 -53 60 -83t97 -30q78 0 124 52.5t46 121.5q0 37 -15 69t-40 55.5t-56.5 35.5t-64.5 12q-78 0 -121 -53t-43 -117z" />
<glyph unicode="&#xa8;" horiz-adv-x="757" d="M141 1040q0 29 20.5 48.5t47.5 19.5q25 0 45 -19.5t20 -48.5t-20.5 -48t-44.5 -19q-27 0 -47.5 19t-20.5 48zM479 1040q0 29 20.5 48.5t47.5 19.5t46 -19.5t19 -48.5t-19.5 -48t-45.5 -19q-27 0 -47.5 19t-20.5 48z" />
<glyph unicode="&#xa9;" horiz-adv-x="1624" d="M291 762q0 115 41 211t112.5 166.5t168 110.5t206.5 40q111 0 207 -40t168 -110.5t113 -166.5t41 -211q0 -113 -41 -209t-113 -167t-168 -110.5t-207 -39.5t-207 39.5t-167.5 110.5t-112.5 167t-41 209zM340 760q0 -102 38 -189.5t102.5 -152t151.5 -100t185 -35.5 q100 0 188.5 35.5t153 100t102 151.5t37.5 190q0 104 -37.5 192t-102 152.5t-152.5 101.5t-189 37q-98 0 -185 -37t-151.5 -101.5t-102.5 -152.5t-38 -192zM528 768q0 70 26 130t71 105.5t105.5 71t127.5 25.5q90 0 170 -45v-105h-37v80q-66 33 -133 33q-59 0 -112.5 -23.5 t-93.5 -63.5t-62.5 -94.5t-22.5 -115.5q0 -59 22.5 -112.5t62.5 -93.5t92.5 -63.5t111.5 -23.5q41 0 78 11.5t72 29.5l20 -31q-37 -23 -79 -35t-89 -12q-68 0 -128 26.5t-105 72t-71 105.5t-26 128z" />
<glyph unicode="&#xaa;" horiz-adv-x="1198" d="M170 905q0 57 23.5 110.5t62.5 92.5t92 61.5t113 22.5q43 0 82 -12.5t69.5 -32t52 -46t31.5 -50.5q0 33 2 65.5t4 63.5h50v-494h110v-59h-166v59q0 18 1 34.5t1 33.5q-10 -25 -31.5 -50.5t-52 -45t-69.5 -31t-84 -11.5q-59 0 -112.5 23t-92.5 61.5t-62.5 91t-23.5 113.5z M233 905q0 -47 17.5 -89t47.5 -72.5t73 -48t90 -17.5q49 0 91 17.5t72.5 48t48 72.5t17.5 89t-17.5 89t-48 73t-72.5 48.5t-91 17.5q-47 0 -90 -17.5t-73 -48.5t-47.5 -73t-17.5 -89z" />
<glyph unicode="&#xab;" horiz-adv-x="1230" d="M240 489q88 84 175 165t175 165v-98q-57 -59 -113.5 -115.5t-114.5 -116.5l228 -233v-98zM590 489q88 84 175 165t175 165v-98q-57 -57 -113.5 -114.5t-113.5 -117.5l227 -233v-98z" />
<glyph unicode="&#xac;" horiz-adv-x="1144" d="M205 432v68h737v-197h-86v129h-651z" />
<glyph unicode="&#xad;" horiz-adv-x="614" d="M109 346v84h376v-84h-376z" />
<glyph unicode="&#xae;" horiz-adv-x="1640" d="M291 762q0 115 41 211t112.5 166.5t168 110.5t206.5 40q111 0 207 -40t168 -110.5t113 -166.5t41 -211q0 -113 -41 -209t-113 -167t-168 -110.5t-207 -39.5t-207 39.5t-167.5 110.5t-112.5 167t-41 209zM340 760q0 -102 38 -189.5t102.5 -152t151.5 -100t185 -35.5 q100 0 188.5 35.5t153 100t102 151.5t37.5 190q0 104 -37.5 192t-102 152.5t-152.5 101.5t-189 37q-98 0 -185 -37t-151.5 -101.5t-102.5 -152.5t-38 -192zM637 430v39h57v600h-57v39h203q31 0 66.5 -10.5t66.5 -32t52.5 -55t21.5 -80.5q0 -68 -37 -114t-107 -62l133 -285 h86v-39h-110l-152 322q-10 -2 -21.5 -2h-23.5h-80v-281h96v-39h-194zM735 788h101q51 0 83.5 13.5t52 35t28 46t8.5 47.5q0 55 -49.5 97t-122.5 42h-101v-281z" />
<glyph unicode="&#xaf;" horiz-adv-x="817" d="M174 995v62h471v-62h-471z" />
<glyph unicode="&#xb0;" horiz-adv-x="577" d="M104 1145q0 76 51.5 127t127.5 51q74 0 125 -51t51 -127q0 -74 -51.5 -124t-124.5 -50q-76 0 -127.5 50t-51.5 124zM166 1147q0 -49 34 -83t83 -34q47 0 81.5 34t34.5 83q0 47 -34.5 81t-81.5 34q-49 0 -83 -34t-34 -81z" />
<glyph unicode="&#xb1;" horiz-adv-x="1073" d="M176 250v82h737v-82h-737zM176 760v84h326v325h86v-325h325v-84h-325v-328h-86v328h-326z" />
<glyph unicode="&#xb2;" horiz-adv-x="815" d="M207 1237q0 39 12 75t37 63.5t60.5 43t82.5 15.5q41 0 77 -15.5t60.5 -43t38 -64.5t13.5 -80q0 -53 -24.5 -107.5t-64.5 -107.5t-88.5 -104.5t-95.5 -102.5h277v106h39v-147h-420q63 63 123.5 122.5t107.5 117t75 110.5t28 101q0 49 -14.5 82.5t-36 53t-47 29t-48.5 9.5 q-47 0 -75.5 -16.5t-45 -40t-22.5 -50t-6 -49.5q0 -37 9 -63.5t30 -49.5l-27 -24q-25 23 -40 59.5t-15 77.5z" />
<glyph unicode="&#xb3;" horiz-adv-x="858" d="M180 840l31 30q23 -27 54.5 -43t68.5 -16q35 0 66.5 14.5t54 37t37 53t14.5 65.5t-14.5 65.5t-37 53t-54 36t-66.5 13.5q-16 0 -33 -5.5t-31 -15.5l185 265h-209v-62h-41v103h325l-178 -248q41 -4 77 -20.5t62.5 -43t41 -62.5t14.5 -79t-16.5 -82t-45 -67.5t-67.5 -45 t-82 -16.5q-47 0 -87 18.5t-69 51.5z" />
<glyph unicode="&#xb4;" horiz-adv-x="491" d="M205 981q47 68 92 136.5t92 135.5h88l-102 -136t-103 -136h-67z" />
<glyph unicode="&#xb5;" horiz-adv-x="1116" d="M59 686v82h238v-532q4 -66 48 -115t130 -53q61 0 118.5 21.5t100.5 58t68.5 88t25.5 112.5v338h-149v82h235v-694h146v-74h-221l-4 106v93q-41 -98 -132.5 -156.5t-203.5 -58.5q-53 0 -95 19.5t-67 53.5v-469h-86v1098h-152z" />
<glyph unicode="&#xb6;" horiz-adv-x="1093" d="M78 1200q0 70 25.5 131.5t70.5 106.5t106.5 71.5t131.5 26.5h608v-74h-189v-1388h189v-74h-275v1462h-247v-1462h-86v866q-70 0 -131.5 26t-106.5 71t-70.5 106t-25.5 131z" />
<glyph unicode="&#xb7;" horiz-adv-x="337" d="M109 576q0 29 20.5 48t46.5 19q25 0 45.5 -19.5t20.5 -47.5q0 -29 -20.5 -48.5t-45.5 -19.5q-27 0 -47 19.5t-20 48.5z" />
<glyph unicode="&#xb8;" horiz-adv-x="925" d="M240 -346q14 6 28.5 12t28.5 12q10 -39 43 -64.5t80 -25.5q57 0 92 39t35 97q0 51 -24.5 78.5t-55.5 48t-55.5 42t-24.5 60.5v47h59v-12q0 -29 8.5 -46.5t21.5 -29.5t28.5 -20.5t27.5 -16.5q45 -31 63.5 -71t18.5 -76q0 -98 -52 -152.5t-136 -54.5q-59 0 -111.5 32.5 t-74.5 100.5z" />
<glyph unicode="&#xb9;" horiz-adv-x="530" d="M133 1395v39h127v-576h76v-37h-191v37h76v537h-88z" />
<glyph unicode="&#xba;" horiz-adv-x="960" d="M186 905q0 57 22.5 110.5t62.5 93.5t92.5 62.5t111.5 22.5q61 0 114.5 -22.5t93.5 -62.5t62.5 -93t22.5 -111q0 -61 -22.5 -113.5t-62.5 -91t-93 -61.5t-115 -23q-59 0 -111.5 23t-92.5 61.5t-62.5 91t-22.5 113.5zM248 905q0 -47 17.5 -89t48 -72.5t72.5 -48t89 -17.5 t89 17.5t73 48t48 72.5t17 89t-17 88t-48 72t-73 49.5t-89 18.5t-89 -18.5t-72.5 -49.5t-48 -72t-17.5 -88z" />
<glyph unicode="&#xbb;" horiz-adv-x="1230" d="M240 158v98l227 233q-57 59 -113.5 117t-113.5 115v98q88 -84 175 -165t175 -165zM590 158v98l227 233q-57 59 -113.5 116t-113.5 116v98q88 -84 175 -165t175 -165z" />
<glyph unicode="&#xbc;" horiz-adv-x="1982" d="M268 1364v59h199v-886h117v-58h-293v58h115v827h-138zM571 -39q143 389 284.5 773t285.5 771h86q-143 -387 -284.5 -771t-285.5 -773h-86zM1026 279l557 725v-662h148v-63h-148v-218h127v-61h-305v61h115v218h-494zM1157 342h363v473z" />
<glyph unicode="&#xbd;" horiz-adv-x="2189" d="M248 1364v59h198v-886h117v-58h-293v58h117v827h-139zM571 -39q143 389 284.5 773t285.5 771h86q-143 -387 -284.5 -771t-285.5 -773h-86zM1167 672q0 57 18.5 108t53.5 90t86 61.5t117 22.5q61 0 111.5 -22.5t86 -61.5t55 -92t19.5 -114q0 -78 -36 -156t-92 -152.5 t-125.5 -149.5t-137.5 -147h395v152h58v-211h-602q92 90 178 176t152.5 168t107.5 158t41 145q0 70 -21.5 117t-52.5 76.5t-67.5 42t-69.5 12.5q-63 0 -105.5 -23.5t-66 -56.5t-32.5 -73t-9 -70q0 -51 14 -90t41 -70l-35 -37q-39 33 -60.5 86t-21.5 111z" />
<glyph unicode="&#xbe;" horiz-adv-x="2613" d="M301 516l49 49q35 -41 84 -66.5t107 -25.5q55 0 104 21.5t86 58.5t57.5 85t20.5 101q0 55 -20.5 103.5t-57.5 84.5t-86 56.5t-104 20.5q-27 0 -53 -8.5t-46 -24.5l289 415h-330v-96h-63v160h512l-281 -389q63 -4 119.5 -30.5t98.5 -68.5t66 -98.5t24 -124.5t-27 -128 t-72 -105t-105.5 -70.5t-127.5 -25.5q-74 0 -136.5 28.5t-107.5 77.5zM930 -39q143 389 284.5 773t284.5 773h86q-143 -389 -284.5 -773t-284.5 -773h-86zM1434 279l557 725v-662h147v-63h-147v-218h127v-61h-308v61h117v218h-493zM1563 342h364v473z" />
<glyph unicode="&#xbf;" horiz-adv-x="874" d="M72 4q0 111 54 196t146 150q35 27 69 47.5t60.5 46t43 64.5t16.5 100v160h86v-199q0 -63 -22.5 -103t-58.5 -70.5t-82 -58.5t-95 -69q-68 -55 -99.5 -121.5t-31.5 -142.5q0 -68 23.5 -125t66.5 -100t100.5 -66.5t124.5 -23.5q119 0 200 61t116 170q18 -8 37.5 -14 t37.5 -12q-18 -53 -51 -104.5t-81 -92.5t-112.5 -66.5t-146.5 -25.5q-84 0 -157.5 31.5t-128 86t-85 127t-30.5 154.5zM438 1006q0 29 20.5 48t45.5 19t46 -19.5t21 -47.5q0 -29 -21.5 -48.5t-45.5 -19.5q-25 0 -45.5 19.5t-20.5 48.5z" />
<glyph unicode="&#xc0;" horiz-adv-x="1662" d="M72 0v82h157q152 356 302.5 708.5t299.5 708.5q150 -356 300.5 -708.5t300.5 -708.5h159v-82h-395v82h150q-57 133 -112.5 265t-113.5 267h-577q-57 -135 -112.5 -267t-113.5 -265h150v-82h-395zM580 696h503l-233 555l-19 58q-4 -6 -10 -31q-4 -12 -10 -27 q-20 -53 -48 -119.5t-58.5 -139t-62.5 -148.5t-62 -148zM586 1808h88q47 -68 92 -136t92 -136h-68q-51 68 -102 136.5t-102 135.5z" />
<glyph unicode="&#xc1;" horiz-adv-x="1662" d="M72 0v82h157q152 356 302.5 708.5t299.5 708.5q150 -356 300.5 -708.5t300.5 -708.5h159v-82h-395v82h150q-57 133 -112.5 265t-113.5 267h-577q-57 -135 -112.5 -267t-113.5 -265h150v-82h-395zM580 696h503l-233 555l-19 58q-4 -6 -10 -31q-4 -12 -10 -27 q-20 -53 -48 -119.5t-58.5 -139t-62.5 -148.5t-62 -148zM801 1536q47 68 92 136.5t92 135.5h88l-102 -136t-103 -136h-67z" />
<glyph unicode="&#xc2;" horiz-adv-x="1662" d="M72 0v82h157q152 356 302.5 708.5t299.5 708.5q150 -356 300.5 -708.5t300.5 -708.5h159v-82h-395v82h150q-57 133 -112.5 265t-113.5 267h-577q-57 -135 -112.5 -267t-113.5 -265h150v-82h-395zM580 696h503l-233 555l-19 58q-4 -6 -10 -31q-4 -12 -10 -27 q-20 -53 -48 -119.5t-58.5 -139t-62.5 -148.5t-62 -148zM585 1536q61 92 123 185.5t123 185.5q61 -92 122.5 -185.5t123.5 -185.5h-68q-45 61 -89 123.5t-89 124.5q-45 -61 -89 -124t-89 -124h-68z" />
<glyph unicode="&#xc3;" horiz-adv-x="1662" d="M72 0v82h157q152 356 302.5 708.5t299.5 708.5q150 -356 300.5 -708.5t300.5 -708.5h159v-82h-395v82h150q-57 133 -112.5 265t-113.5 267h-577q-57 -135 -112.5 -267t-113.5 -265h150v-82h-395zM526 1565q2 39 18.5 67.5t41 48t55.5 28.5t59 9q43 0 79 -19.5t69 -54.5 t57.5 -46t52.5 -11q14 0 35 4t39 15.5t31.5 32t17.5 53.5q14 -2 27.5 -2.5t25.5 -2.5q-2 -39 -18 -67.5t-41 -48t-55.5 -28.5t-59.5 -9q-43 0 -78.5 19.5t-70.5 54.5q-31 35 -55.5 46t-53.5 11q-16 0 -35.5 -4t-38 -15.5t-33 -32t-18.5 -53.5q-12 2 -25.5 2.5t-25.5 2.5z M580 696h503l-233 555l-19 58q-4 -6 -10 -31q-4 -12 -10 -27q-20 -53 -48 -119.5t-58.5 -139t-62.5 -148.5t-62 -148z" />
<glyph unicode="&#xc4;" horiz-adv-x="1662" d="M72 0v82h157q152 356 302.5 708.5t299.5 708.5q150 -356 300.5 -708.5t300.5 -708.5h159v-82h-395v82h150q-57 133 -112.5 265t-113.5 267h-577q-57 -135 -112.5 -267t-113.5 -265h150v-82h-395zM580 696h503l-233 555l-19 58q-4 -6 -10 -31q-4 -12 -10 -27 q-20 -53 -48 -119.5t-58.5 -139t-62.5 -148.5t-62 -148zM596 1634q0 29 20.5 48.5t47.5 19.5q25 0 45 -19.5t20 -48.5t-20.5 -48t-44.5 -19q-27 0 -47.5 19t-20.5 48zM934 1634q0 29 20.5 48.5t47.5 19.5t46 -19.5t19 -48.5t-19.5 -48t-45.5 -19q-27 0 -47.5 19t-20.5 48z " />
<glyph unicode="&#xc5;" horiz-adv-x="1662" d="M72 0v82h157q152 356 302.5 708.5t299.5 708.5q150 -356 300.5 -708.5t300.5 -708.5h159v-82h-395v82h150q-57 133 -112.5 265t-113.5 267h-577q-57 -135 -112.5 -267t-113.5 -265h150v-82h-395zM580 696h503l-233 555l-19 58q-4 -6 -10 -31q-4 -12 -10 -27 q-20 -53 -48 -119.5t-58.5 -139t-62.5 -148.5t-62 -148zM684 1712q0 61 44 105t106 44q61 0 105 -44t44 -105t-44 -105.5t-105 -44.5t-105.5 44.5t-44.5 105.5zM748 1712q0 -35 25.5 -61.5t60.5 -26.5t61.5 26.5t26.5 61.5t-26.5 60.5t-61.5 25.5t-60.5 -25.5t-25.5 -60.5z " />
<glyph unicode="&#xc6;" horiz-adv-x="1589" d="M72 0v82h159q145 340 286.5 676t285.5 676h686v-316h-82v234h-506v-588h508v-82h-508v-600h535v233h82v-315h-703v604h-274q-55 -131 -110.5 -261t-113.5 -261h150v-82h-395zM575 686h240v582q-51 -147 -115.5 -292t-124.5 -290z" />
<glyph unicode="&#xc7;" horiz-adv-x="1218" d="M72 715q0 152 57 286t156.5 233t232.5 157.5t285 58.5q104 0 197.5 -26.5t177.5 -75.5v-396h-82v342q-66 35 -140.5 54.5t-152.5 19.5q-133 0 -251 -52t-206 -141.5t-138 -208t-50 -253.5q0 -133 50 -251t138 -206t204 -139t249 -51q92 0 174 23.5t155 66.5l48 -70 q-80 -47 -171.5 -73.5t-189.5 -28.5v-17.5t2 -9.5q10 -37 35 -52.5t47 -29.5q45 -31 63.5 -71t18.5 -76q0 -98 -52 -152.5t-136 -54.5q-59 0 -110.5 32.5t-74.5 100.5l56 24q12 -39 43.5 -64.5t78.5 -25.5q59 0 93 39t34 97q0 51 -24.5 78.5t-54 48t-54 42t-24.5 60.5v33 q-143 8 -268.5 68.5t-217.5 158.5t-145 227t-53 275z" />
<glyph unicode="&#xc8;" horiz-adv-x="1169" d="M72 0v82h147v1270h-147v82h997v-316h-82v234h-684v-588h686v-82h-686v-600h713v233h82v-315h-1026zM363 1808h88q47 -68 92 -136t92 -136h-68q-51 68 -102 136.5t-102 135.5z" />
<glyph unicode="&#xc9;" horiz-adv-x="1169" d="M72 0v82h147v1270h-147v82h997v-316h-82v234h-684v-588h686v-82h-686v-600h713v233h82v-315h-1026zM555 1536q47 68 92 136.5t92 135.5h88l-102 -136t-103 -136h-67z" />
<glyph unicode="&#xca;" horiz-adv-x="1169" d="M72 0v82h147v1270h-147v82h997v-316h-82v234h-684v-588h686v-82h-686v-600h713v233h82v-315h-1026zM368 1536q61 92 123 185.5t123 185.5q61 -92 122.5 -185.5t123.5 -185.5h-68q-45 61 -89 123.5t-89 124.5q-45 -61 -89 -124t-89 -124h-68z" />
<glyph unicode="&#xcb;" horiz-adv-x="1169" d="M72 0v82h147v1270h-147v82h997v-316h-82v234h-684v-588h686v-82h-686v-600h713v233h82v-315h-1026zM366 1634q0 29 20.5 48.5t47.5 19.5q25 0 45 -19.5t20 -48.5t-20.5 -48t-44.5 -19q-27 0 -47.5 19t-20.5 48zM704 1634q0 29 20.5 48.5t47.5 19.5t46 -19.5t19 -48.5 t-19.5 -48t-45.5 -19q-27 0 -47.5 19t-20.5 48z" />
<glyph unicode="&#xcc;" horiz-adv-x="555" d="M19 1808h88q47 -68 92 -136t92 -136h-68q-51 68 -102 136.5t-102 135.5zM72 0v82h159v1270h-159v82h411v-82h-168v-1270h168v-82h-411z" />
<glyph unicode="&#xcd;" horiz-adv-x="555" d="M72 0v82h159v1270h-159v82h411v-82h-168v-1270h168v-82h-411zM256 1536q47 68 92 136.5t92 135.5h88l-102 -136t-103 -136h-67z" />
<glyph unicode="&#xce;" horiz-adv-x="557" d="M32 1536q61 92 123 185.5t123 185.5q61 -92 122.5 -185.5t123.5 -185.5h-68q-45 61 -89 123.5t-89 124.5q-45 -61 -89 -124t-89 -124h-68zM72 0v82h159v1270h-159v82h411v-82h-168v-1270h168v-82h-411z" />
<glyph unicode="&#xcf;" horiz-adv-x="555" d="M43 1634q0 29 20.5 48.5t47.5 19.5q25 0 45 -19.5t20 -48.5t-20.5 -48t-44.5 -19q-27 0 -47.5 19t-20.5 48zM72 0v82h159v1270h-159v82h411v-82h-168v-1270h168v-82h-411zM381 1634q0 29 20.5 48.5t47.5 19.5t46 -19.5t19 -48.5t-19.5 -48t-45.5 -19q-27 0 -47.5 19 t-20.5 48z" />
<glyph unicode="&#xd0;" horiz-adv-x="1294" d="M72 0v82h129v596h-111v84h111v590h-129v82h430q147 0 278 -50.5t229.5 -143.5t156 -226t57.5 -297q0 -121 -42 -248t-136.5 -231.5t-245 -171t-367.5 -66.5h-360zM285 84h178q170 0 297 54.5t211 142.5t126 201.5t42 234.5q0 145 -50.5 263t-137.5 201t-202.5 127 t-246.5 44h-217v-590h424v-84h-424v-594z" />
<glyph unicode="&#xd1;" horiz-adv-x="1654" d="M72 0v82h166v1270h-166v82h221l1077 -1254l39 -53l-6 66v1159h-154v82h412v-82h-172v-1418l-1133 1309l-39 45l7 -57v-1149h159v-82h-411zM530 1563q2 39 18.5 67.5t41 48t55.5 28.5t59 9q43 0 79 -19.5t69 -54.5t57.5 -46t52.5 -11q14 0 35 4t39 15.5t31.5 32t17.5 53.5 q14 -2 27.5 -2.5t25.5 -2.5q-2 -39 -18 -67.5t-41 -48t-55.5 -28.5t-59.5 -9q-43 0 -78.5 19.5t-70.5 54.5q-31 35 -55.5 46t-53.5 11q-16 0 -35.5 -4t-38 -15.5t-33 -32t-18.5 -53.5q-12 2 -25.5 2.5t-25.5 2.5z" />
<glyph unicode="&#xd2;" horiz-adv-x="1609" d="M72 715q0 152 57 286t156.5 233t232.5 157.5t285 58.5t286 -58.5t233 -157.5t157.5 -233.5t58.5 -285.5q0 -152 -58.5 -285t-157.5 -232.5t-233.5 -156.5t-285.5 -57q-152 0 -285 57t-232.5 156.5t-156.5 232.5t-57 285zM158 713q0 -135 50 -253t138 -205t205 -138 t250 -51t251.5 51t208 139t140.5 206t51 253t-51 253.5t-139 208t-207 140.5t-252 51t-251 -52t-206 -141.5t-138 -208t-50 -253.5zM562 1808h88q47 -68 92 -136t92 -136h-68q-51 68 -102 136.5t-102 135.5z" />
<glyph unicode="&#xd3;" horiz-adv-x="1609" d="M72 715q0 152 57 286t156.5 233t232.5 157.5t285 58.5t286 -58.5t233 -157.5t157.5 -233.5t58.5 -285.5q0 -152 -58.5 -285t-157.5 -232.5t-233.5 -156.5t-285.5 -57q-152 0 -285 57t-232.5 156.5t-156.5 232.5t-57 285zM158 713q0 -135 50 -253t138 -205t205 -138 t250 -51t251.5 51t208 139t140.5 206t51 253t-51 253.5t-139 208t-207 140.5t-252 51t-251 -52t-206 -141.5t-138 -208t-50 -253.5zM805 1536q47 68 92 136.5t92 135.5h88l-102 -136t-103 -136h-67z" />
<glyph unicode="&#xd4;" horiz-adv-x="1609" d="M72 715q0 152 57 286t156.5 233t232.5 157.5t285 58.5t286 -58.5t233 -157.5t157.5 -233.5t58.5 -285.5q0 -152 -58.5 -285t-157.5 -232.5t-233.5 -156.5t-285.5 -57q-152 0 -285 57t-232.5 156.5t-156.5 232.5t-57 285zM158 713q0 -135 50 -253t138 -205t205 -138 t250 -51t251.5 51t208 139t140.5 206t51 253t-51 253.5t-139 208t-207 140.5t-252 51t-251 -52t-206 -141.5t-138 -208t-50 -253.5zM567 1536q61 92 123 185.5t123 185.5q61 -92 122.5 -185.5t123.5 -185.5h-68q-45 61 -89 123.5t-89 124.5q-45 -61 -89 -124t-89 -124h-68z " />
<glyph unicode="&#xd5;" horiz-adv-x="1609" d="M72 715q0 152 57 286t156.5 233t232.5 157.5t285 58.5t286 -58.5t233 -157.5t157.5 -233.5t58.5 -285.5q0 -152 -58.5 -285t-157.5 -232.5t-233.5 -156.5t-285.5 -57q-152 0 -285 57t-232.5 156.5t-156.5 232.5t-57 285zM158 713q0 -135 50 -253t138 -205t205 -138 t250 -51t251.5 51t208 139t140.5 206t51 253t-51 253.5t-139 208t-207 140.5t-252 51t-251 -52t-206 -141.5t-138 -208t-50 -253.5zM510 1633q2 39 18.5 67.5t41 48t55.5 28.5t59 9q43 0 79 -19.5t69 -54.5t57.5 -46t52.5 -11q14 0 35 4t39 15.5t31.5 32t17.5 53.5 q14 -2 27.5 -2.5t25.5 -2.5q-2 -39 -18 -67.5t-41 -48t-55.5 -28.5t-59.5 -9q-43 0 -78.5 19.5t-70.5 54.5q-31 35 -55.5 46t-53.5 11q-16 0 -35.5 -4t-38 -15.5t-33 -32t-18.5 -53.5q-12 2 -25.5 2.5t-25.5 2.5z" />
<glyph unicode="&#xd6;" horiz-adv-x="1609" d="M72 715q0 152 57 286t156.5 233t232.5 157.5t285 58.5t286 -58.5t233 -157.5t157.5 -233.5t58.5 -285.5q0 -152 -58.5 -285t-157.5 -232.5t-233.5 -156.5t-285.5 -57q-152 0 -285 57t-232.5 156.5t-156.5 232.5t-57 285zM158 713q0 -135 50 -253t138 -205t205 -138 t250 -51t251.5 51t208 139t140.5 206t51 253t-51 253.5t-139 208t-207 140.5t-252 51t-251 -52t-206 -141.5t-138 -208t-50 -253.5zM577 1634q0 29 20.5 48.5t47.5 19.5q25 0 45 -19.5t20 -48.5t-20.5 -48t-44.5 -19q-27 0 -47.5 19t-20.5 48zM915 1634q0 29 20.5 48.5 t47.5 19.5t46 -19.5t19 -48.5t-19.5 -48t-45.5 -19q-27 0 -47.5 19t-20.5 48z" />
<glyph unicode="&#xd7;" horiz-adv-x="1024" d="M250 59l115.5 115.5t113.5 116.5l-229 229l61 62l230 -230q59 59 115.5 114.5t115.5 115.5q14 -14 28.5 -29.5t30.5 -30.5q-59 -57 -115.5 -114.5t-115.5 -114.5q59 -59 115.5 -116.5t115.5 -115.5l-59 -61q-59 59 -116.5 115.5t-116.5 115.5q-57 -57 -113.5 -114.5 t-116.5 -116.5q-14 16 -29.5 30.5t-29.5 28.5z" />
<glyph unicode="&#xd8;" horiz-adv-x="1609" d="M72 715q0 152 57 286t156.5 233t232.5 157.5t285 58.5q123 0 233.5 -38t202.5 -107l129 153q14 -12 28.5 -24.5t28.5 -26.5q-33 -39 -63.5 -76t-63.5 -76q111 -100 175.5 -240.5t64.5 -299.5q0 -152 -58.5 -285t-157.5 -232.5t-233.5 -156.5t-285.5 -57q-129 0 -243 41 t-206 112q-35 -41 -68.5 -81t-68.5 -81q-14 14 -28.5 26.5t-28.5 27.5l135 159q-104 100 -163.5 235.5t-59.5 291.5zM158 713q0 -135 50 -254t140 -207q211 250 418 495.5t418 493.5q-82 59 -178.5 93t-202.5 34q-133 0 -251 -52t-206 -141.5t-138 -208t-50 -253.5zM408 201 q82 -66 181 -100.5t210 -34.5q135 0 253.5 51t208 139t140.5 206t51 253q0 141 -56.5 263t-154.5 212q-211 -248 -417 -494.5t-416 -494.5z" />
<glyph unicode="&#xd9;" horiz-adv-x="1425" d="M72 1352v82h411v-82h-168v-883q0 -98 30 -173t82 -126t125 -77.5t161 -26.5q86 0 158.5 26.5t126 77.5t83 126t29.5 173v883h-168v82h412v-82h-158v-889q0 -117 -37 -207t-102.5 -150.5t-153.5 -91t-190 -30.5q-104 0 -192.5 30.5t-153 91t-101.5 150.5t-37 207v889h-157 zM467 1808h88q47 -68 92 -136t92 -136h-68q-51 68 -102 136.5t-102 135.5z" />
<glyph unicode="&#xda;" horiz-adv-x="1425" d="M72 1352v82h411v-82h-168v-883q0 -98 30 -173t82 -126t125 -77.5t161 -26.5q86 0 158.5 26.5t126 77.5t83 126t29.5 173v883h-168v82h412v-82h-158v-889q0 -117 -37 -207t-102.5 -150.5t-153.5 -91t-190 -30.5q-104 0 -192.5 30.5t-153 91t-101.5 150.5t-37 207v889h-157 zM694 1536q47 68 92 136.5t92 135.5h88l-102 -136t-103 -136h-67z" />
<glyph unicode="&#xdb;" horiz-adv-x="1425" d="M72 1352v82h411v-82h-168v-883q0 -98 30 -173t82 -126t125 -77.5t161 -26.5q86 0 158.5 26.5t126 77.5t83 126t29.5 173v883h-168v82h412v-82h-158v-889q0 -117 -37 -207t-102.5 -150.5t-153.5 -91t-190 -30.5q-104 0 -192.5 30.5t-153 91t-101.5 150.5t-37 207v889h-157 zM471 1536q61 92 123 185.5t123 185.5q61 -92 122.5 -185.5t123.5 -185.5h-68q-45 61 -89 123.5t-89 124.5q-45 -61 -89 -124t-89 -124h-68z" />
<glyph unicode="&#xdc;" horiz-adv-x="1425" d="M72 1352v82h411v-82h-168v-883q0 -98 30 -173t82 -126t125 -77.5t161 -26.5q86 0 158.5 26.5t126 77.5t83 126t29.5 173v883h-168v82h412v-82h-158v-889q0 -117 -37 -207t-102.5 -150.5t-153.5 -91t-190 -30.5q-104 0 -192.5 30.5t-153 91t-101.5 150.5t-37 207v889h-157 zM475 1636q0 29 20.5 48.5t47.5 19.5q25 0 45 -19.5t20 -48.5t-20.5 -48t-44.5 -19q-27 0 -47.5 19t-20.5 48zM813 1636q0 29 20.5 48.5t47.5 19.5t46 -19.5t19 -48.5t-19.5 -48t-45.5 -19q-27 0 -47.5 19t-20.5 48z" />
<glyph unicode="&#xdd;" horiz-adv-x="1527" d="M72 1352v82h411v-82h-149q205 -338 405 -676l25 -58h2l22 58l404 676h-148v82h412v-82h-160q-121 -205 -240.5 -406t-240.5 -403v-461h160v-82h-412v82h152v461q-123 203 -243 404.5t-241 404.5h-159zM762 1536q47 68 92 136.5t92 135.5h88l-102 -136t-103 -136h-67z" />
<glyph unicode="&#xde;" horiz-adv-x="1036" d="M72 0v82h145v1270h-145v82h395v-82h-164v-256h221q63 0 140 -20.5t143.5 -65.5t112 -117t45.5 -172q0 -176 -113 -280.5t-324 -104.5h-225v-254h180v-82h-411zM303 420h211q106 0 177 28.5t113 73.5t58.5 97.5t16.5 101.5q0 57 -28 110.5t-76 94.5t-114.5 64.5 t-144.5 23.5h-213v-594z" />
<glyph unicode="&#xdf;" horiz-adv-x="1124" d="M72 0v82h151v647h-129v82h129v59q0 113 32 201t87 148.5t128 93.5t153 35q63 -2 118.5 -27t96.5 -67t64.5 -97t23.5 -119q0 -78 -42 -142.5t-108 -98.5q59 -20 110.5 -58.5t88.5 -88.5t57.5 -111.5t20.5 -128.5q0 -88 -35 -166t-93.5 -135.5t-137 -91t-166.5 -33.5 q-109 0 -201 51l35 74q74 -43 163 -43q72 0 135.5 27.5t110.5 74.5t75 109.5t28 132.5t-28 131t-75 107t-110.5 73t-132.5 27v43v43q92 0 155.5 55t63.5 145q0 45 -16.5 86t-45 74t-68.5 51.5t-87 18.5q-66 0 -123.5 -28t-100.5 -79t-67.5 -123.5t-24.5 -163.5v-870h-235z " />
<glyph unicode="&#xe0;" d="M72 385q0 82 31.5 154.5t86 127t128 86t157.5 31.5q59 0 112.5 -17t96.5 -45t72.5 -63.5t44.5 -70.5q0 45 3 90t5 90h70v-686h151v-82h-229v82q0 25 1 48.5t1 45.5q-14 -35 -44 -69.5t-72 -61.5t-96 -43t-116 -16q-84 0 -157.5 31.5t-128 85t-86 126t-31.5 156.5z M158 385q0 -66 24.5 -123t66.5 -100t100.5 -67.5t125.5 -24.5q68 0 125 24.5t100 67.5t68 100t25 123t-25 124t-68 101t-100 67.5t-125 24.5t-126 -24.5t-100 -67.5t-66.5 -101t-24.5 -124zM260 1253h88q47 -68 92 -136t92 -136h-68q-51 68 -102 136.5t-102 135.5z" />
<glyph unicode="&#xe1;" d="M72 385q0 82 31.5 154.5t86 127t128 86t157.5 31.5q59 0 112.5 -17t96.5 -45t72.5 -63.5t44.5 -70.5q0 45 3 90t5 90h70v-686h151v-82h-229v82q0 25 1 48.5t1 45.5q-14 -35 -44 -69.5t-72 -61.5t-96 -43t-116 -16q-84 0 -157.5 31.5t-128 85t-86 126t-31.5 156.5z M158 385q0 -66 24.5 -123t66.5 -100t100.5 -67.5t125.5 -24.5q68 0 125 24.5t100 67.5t68 100t25 123t-25 124t-68 101t-100 67.5t-125 24.5t-126 -24.5t-100 -67.5t-66.5 -101t-24.5 -124zM475 981q47 68 92 136.5t92 135.5h88l-102 -136t-103 -136h-67z" />
<glyph unicode="&#xe2;" d="M72 385q0 82 31.5 154.5t86 127t128 86t157.5 31.5q59 0 112.5 -17t96.5 -45t72.5 -63.5t44.5 -70.5q0 45 3 90t5 90h70v-686h151v-82h-229v82q0 25 1 48.5t1 45.5q-14 -35 -44 -69.5t-72 -61.5t-96 -43t-116 -16q-84 0 -157.5 31.5t-128 85t-86 126t-31.5 156.5z M158 385q0 -66 24.5 -123t66.5 -100t100.5 -67.5t125.5 -24.5q68 0 125 24.5t100 67.5t68 100t25 123t-25 124t-68 101t-100 67.5t-125 24.5t-126 -24.5t-100 -67.5t-66.5 -101t-24.5 -124zM288 981q61 92 123 185.5t123 185.5q61 -92 122.5 -185.5t123.5 -185.5h-68 q-45 61 -89 123.5t-89 124.5q-45 -61 -89 -124t-89 -124h-68z" />
<glyph unicode="&#xe3;" d="M72 385q0 82 31.5 154.5t86 127t128 86t157.5 31.5q59 0 112.5 -17t96.5 -45t72.5 -63.5t44.5 -70.5q0 45 3 90t5 90h70v-686h151v-82h-229v82q0 25 1 48.5t1 45.5q-14 -35 -44 -69.5t-72 -61.5t-96 -43t-116 -16q-84 0 -157.5 31.5t-128 85t-86 126t-31.5 156.5z M158 385q0 -66 24.5 -123t66.5 -100t100.5 -67.5t125.5 -24.5q68 0 125 24.5t100 67.5t68 100t25 123t-25 124t-68 101t-100 67.5t-125 24.5t-126 -24.5t-100 -67.5t-66.5 -101t-24.5 -124zM178 963q2 39 18.5 67.5t41 48t55.5 28.5t59 9q43 0 79 -19.5t69 -54.5t57.5 -46 t52.5 -11q14 0 35 4t39 15.5t31.5 32t17.5 53.5q14 -2 27.5 -2.5t25.5 -2.5q-2 -39 -18 -67.5t-41 -48t-55.5 -28.5t-59.5 -9q-43 0 -78.5 19.5t-70.5 54.5q-31 35 -55.5 46t-53.5 11q-16 0 -35.5 -4t-38 -15.5t-33 -32t-18.5 -53.5q-12 2 -25.5 2.5t-25.5 2.5z" />
<glyph unicode="&#xe4;" d="M72 385q0 82 31.5 154.5t86 127t128 86t157.5 31.5q59 0 112.5 -17t96.5 -45t72.5 -63.5t44.5 -70.5q0 45 3 90t5 90h70v-686h151v-82h-229v82q0 25 1 48.5t1 45.5q-14 -35 -44 -69.5t-72 -61.5t-96 -43t-116 -16q-84 0 -157.5 31.5t-128 85t-86 126t-31.5 156.5z M158 385q0 -66 24.5 -123t66.5 -100t100.5 -67.5t125.5 -24.5q68 0 125 24.5t100 67.5t68 100t25 123t-25 124t-68 101t-100 67.5t-125 24.5t-126 -24.5t-100 -67.5t-66.5 -101t-24.5 -124zM260 1040q0 29 20.5 48.5t47.5 19.5q25 0 45 -19.5t20 -48.5t-20.5 -48t-44.5 -19 q-27 0 -47.5 19t-20.5 48zM598 1040q0 29 20.5 48.5t47.5 19.5t46 -19.5t19 -48.5t-19.5 -48t-45.5 -19q-27 0 -47.5 19t-20.5 48z" />
<glyph unicode="&#xe5;" d="M72 385q0 82 31.5 154.5t86 127t128 86t157.5 31.5q59 0 112.5 -17t96.5 -45t72.5 -63.5t44.5 -70.5q0 45 3 90t5 90h70v-686h151v-82h-229v82q0 25 1 48.5t1 45.5q-14 -35 -44 -69.5t-72 -61.5t-96 -43t-116 -16q-84 0 -157.5 31.5t-128 85t-86 126t-31.5 156.5z M158 385q0 -66 24.5 -123t66.5 -100t100.5 -67.5t125.5 -24.5q68 0 125 24.5t100 67.5t68 100t25 123t-25 124t-68 101t-100 67.5t-125 24.5t-126 -24.5t-100 -67.5t-66.5 -101t-24.5 -124zM352 1106q0 61 44 105t106 44q61 0 105 -44t44 -105t-44 -105.5t-105 -44.5 t-105.5 44.5t-44.5 105.5zM416 1106q0 -35 25.5 -61.5t60.5 -26.5t61.5 26.5t26.5 61.5t-26.5 60.5t-61.5 25.5t-60.5 -25.5t-25.5 -60.5z" />
<glyph unicode="&#xe6;" horiz-adv-x="1214" d="M72 209q0 57 25.5 97t68.5 64.5t97 35t112 10.5h252v82q0 51 -8.5 89t-33 62.5t-70.5 36.5t-122 12q-27 0 -58.5 -6t-61 -15t-56.5 -20.5t-41 -23.5q-14 14 -26.5 28.5t-26.5 28.5q20 18 52 35.5t69 30t76.5 19.5t74.5 7q152 0 221 -39q84 39 175 39q61 0 116.5 -21.5 t101.5 -60t80.5 -91t53.5 -115.5q-106 -41 -214 -84t-216 -84v-64q0 -59 -11.5 -99t-42.5 -71q55 -27 132 -26q63 0 118.5 22.5t96.5 63.5q14 -16 26 -31t27 -31q-53 -51 -121 -79.5t-147 -28.5q-102 0 -183 43q-76 -45 -213 -45q-74 0 -133 11t-101 36.5t-65.5 69.5 t-23.5 112zM158 207q0 -45 22.5 -73t58 -43t77.5 -21.5t81 -6.5t80 6.5t75 23t54.5 46t20.5 78.5v111h-160h-83t-102.5 -11.5t-87 -36t-36.5 -73.5zM668 674q27 -29 36 -73t9 -107v-78q80 31 160.5 62.5t160.5 62.5q-35 72 -100.5 114.5t-142.5 42.5q-35 0 -65 -7t-58 -17z " />
<glyph unicode="&#xe7;" horiz-adv-x="800" d="M72 385q0 82 31.5 155.5t86 127t128 85t157.5 31.5q74 0 138.5 -23.5t115.5 -64.5v-202h-78v153q-39 27 -83 41t-93 14q-68 0 -126 -24.5t-100 -67.5t-66.5 -101t-24.5 -124t24.5 -123t66.5 -100t100.5 -67.5t125.5 -24.5q115 -1 201 67l53 -63q-12 -10 -46 -27.5 t-73 -34t-74.5 -27t-50.5 -5.5q0 -25 9.5 -41.5t21.5 -27.5t27.5 -19.5t27.5 -16.5q45 -31 63.5 -71t18.5 -76q0 -92 -45 -141.5t-112 -59.5q-37 -6 -74 2q-47 8 -85 39t-56 86l55 24q12 -41 44 -65.5t79 -24.5q57 0 92 39t35 97q0 51 -24.5 78.5t-54.5 48t-54.5 42 t-24.5 60.5v39q-76 8 -140.5 41t-112.5 85t-75.5 120.5t-27.5 146.5z" />
<glyph unicode="&#xe8;" horiz-adv-x="903" d="M72 385q0 82 31.5 155.5t86 127t127 85t156.5 31.5q61 0 116.5 -21.5t101.5 -59t81 -90t53 -115.5q-160 -63 -317.5 -126t-317.5 -126q35 -78 111 -127t172 -49q63 0 118.5 22.5t96.5 63.5q14 -16 26.5 -31.5t26.5 -32.5q-53 -49 -120.5 -77.5t-147.5 -28.5 q-84 0 -156.5 31.5t-127 85t-86 126t-31.5 156.5zM166 326q137 55 274.5 109t276.5 110q-35 70 -100.5 113.5t-143.5 43.5q-76 0 -138.5 -31.5t-105.5 -83.5t-60 -121t-3 -140zM220 1253h88q47 -68 92 -136t92 -136h-68q-51 68 -102 136.5t-102 135.5z" />
<glyph unicode="&#xe9;" horiz-adv-x="903" d="M72 385q0 82 31.5 155.5t86 127t127 85t156.5 31.5q61 0 116.5 -21.5t101.5 -59t81 -90t53 -115.5q-160 -63 -317.5 -126t-317.5 -126q35 -78 111 -127t172 -49q63 0 118.5 22.5t96.5 63.5q14 -16 26.5 -31.5t26.5 -32.5q-53 -49 -120.5 -77.5t-147.5 -28.5 q-84 0 -156.5 31.5t-127 85t-86 126t-31.5 156.5zM166 326q137 55 274.5 109t276.5 110q-35 70 -100.5 113.5t-143.5 43.5q-76 0 -138.5 -31.5t-105.5 -83.5t-60 -121t-3 -140zM465 981q47 68 92 136.5t92 135.5h88l-102 -136t-103 -136h-67z" />
<glyph unicode="&#xea;" horiz-adv-x="903" d="M72 385q0 82 31.5 155.5t86 127t127 85t156.5 31.5q61 0 116.5 -21.5t101.5 -59t81 -90t53 -115.5q-160 -63 -317.5 -126t-317.5 -126q35 -78 111 -127t172 -49q63 0 118.5 22.5t96.5 63.5q14 -16 26.5 -31.5t26.5 -32.5q-53 -49 -120.5 -77.5t-147.5 -28.5 q-84 0 -156.5 31.5t-127 85t-86 126t-31.5 156.5zM166 326q137 55 274.5 109t276.5 110q-35 70 -100.5 113.5t-143.5 43.5q-76 0 -138.5 -31.5t-105.5 -83.5t-60 -121t-3 -140zM225 981q61 92 123 185.5t123 185.5q61 -92 122.5 -185.5t123.5 -185.5h-68q-45 61 -89 123.5 t-89 124.5q-45 -61 -89 -124t-89 -124h-68z" />
<glyph unicode="&#xeb;" horiz-adv-x="903" d="M72 385q0 82 31.5 155.5t86 127t127 85t156.5 31.5q61 0 116.5 -21.5t101.5 -59t81 -90t53 -115.5q-160 -63 -317.5 -126t-317.5 -126q35 -78 111 -127t172 -49q63 0 118.5 22.5t96.5 63.5q14 -16 26.5 -31.5t26.5 -32.5q-53 -49 -120.5 -77.5t-147.5 -28.5 q-84 0 -156.5 31.5t-127 85t-86 126t-31.5 156.5zM166 326q137 55 274.5 109t276.5 110q-35 70 -100.5 113.5t-143.5 43.5q-76 0 -138.5 -31.5t-105.5 -83.5t-60 -121t-3 -140zM239 1040q0 29 20.5 48.5t47.5 19.5q25 0 45 -19.5t20 -48.5t-20.5 -48t-44.5 -19 q-27 0 -47.5 19t-20.5 48zM577 1040q0 29 20.5 48.5t47.5 19.5t46 -19.5t19 -48.5t-19.5 -48t-45.5 -19q-27 0 -47.5 19t-20.5 48z" />
<glyph unicode="&#xec;" horiz-adv-x="538" d="M29 1253h88q47 -68 92 -136t92 -136h-68q-51 68 -102 136.5t-102 135.5zM72 0v82h157v604h-157v82h243v-686h152v-82h-395z" />
<glyph unicode="&#xed;" horiz-adv-x="538" d="M72 0v82h157v604h-157v82h243v-686h152v-82h-395zM242 981q47 68 92 136.5t92 135.5h88l-102 -136t-103 -136h-67z" />
<glyph unicode="&#xee;" horiz-adv-x="538" d="M28 981q61 92 123 185.5t123 185.5q61 -92 122.5 -185.5t123.5 -185.5h-68q-45 61 -89 123.5t-89 124.5q-45 -61 -89 -124t-89 -124h-68zM72 0v82h157v604h-157v82h243v-686h152v-82h-395z" />
<glyph unicode="&#xef;" horiz-adv-x="538" d="M39 1040q0 29 20.5 48.5t47.5 19.5q25 0 45 -19.5t20 -48.5t-20.5 -48t-44.5 -19q-27 0 -47.5 19t-20.5 48zM72 0v82h157v604h-157v82h243v-686h152v-82h-395zM377 1040q0 29 20.5 48.5t47.5 19.5t46 -19.5t19 -48.5t-19.5 -48t-45.5 -19q-27 0 -47.5 19t-20.5 48z" />
<glyph unicode="&#xf0;" horiz-adv-x="950" d="M72 383q0 82 29.5 155.5t84 128t127 87t156.5 32.5q78 2 143.5 -29.5t110.5 -84.5q-27 102 -94.5 238.5t-190.5 283.5q-33 -35 -64.5 -69.5t-64.5 -69.5q-14 14 -28.5 26.5t-28.5 26.5q35 37 69.5 75t69.5 74q-92 102 -190 183l57 57q98 -78 191 -178q31 35 62.5 67.5 t59.5 67.5q16 -12 29.5 -24.5t28.5 -24.5q-33 -37 -65 -73t-66 -72q76 -92 145.5 -200t121.5 -220.5t83 -226t31 -220.5q0 -84 -31 -156.5t-84 -128t-127 -87t-158 -33.5q-84 0 -157.5 29.5t-129 84t-87 126t-33.5 155.5zM158 385q0 -66 24.5 -123t67.5 -100t101.5 -66.5 t125.5 -23.5q68 0 126.5 25.5t100 68.5t65.5 100.5t24 122.5q0 68 -26 125t-69 100t-100 67t-125 24t-126 -26t-100 -69t-65.5 -101t-23.5 -124z" />
<glyph unicode="&#xf1;" horiz-adv-x="1116" d="M72 0v82h159v604h-147v82h217l2 -72q2 -35 4 -63.5t2 -63.5q41 96 132 155.5t206 59.5q113 0 178.5 -63.5t69.5 -165.5v-473h149v-82h-395v82h160v450q-4 66 -48 115t-130 53q-61 0 -118.5 -21.5t-101.5 -58t-70 -88t-26 -112.5v-338h152v-82h-395zM264 947 q2 39 18.5 67.5t41 48t55.5 28.5t59 9q43 0 79 -19.5t69 -54.5t57.5 -46t52.5 -11q14 0 35 4t39 15.5t31.5 32t17.5 53.5q14 -2 27.5 -2.5t25.5 -2.5q-2 -39 -18 -67.5t-41 -48t-55.5 -28.5t-59.5 -9q-43 0 -78.5 19.5t-70.5 54.5q-31 35 -55.5 46t-53.5 11q-16 0 -35.5 -4 t-38 -15.5t-33 -32t-18.5 -53.5q-12 2 -25.5 2.5t-25.5 2.5z" />
<glyph unicode="&#xf2;" horiz-adv-x="952" d="M74 385q0 82 31.5 155.5t86 128t127 86t156.5 31.5t158 -31.5t129 -86t87 -128t32 -155.5q0 -84 -32 -156.5t-87 -126t-129 -85t-158 -31.5t-156.5 31.5t-127 85t-86 126t-31.5 156.5zM158 385q0 -66 24.5 -123t67.5 -100t100.5 -67.5t122.5 -24.5q66 0 124 24.5 t101 67.5t68 100t25 123t-25 123t-68 100t-101 68.5t-124 25.5t-123 -25.5t-100 -68.5t-67.5 -100t-24.5 -123zM228 1253h88q47 -68 92 -136t92 -136h-68q-51 68 -102 136.5t-102 135.5z" />
<glyph unicode="&#xf3;" horiz-adv-x="952" d="M74 385q0 82 31.5 155.5t86 128t127 86t156.5 31.5t158 -31.5t129 -86t87 -128t32 -155.5q0 -84 -32 -156.5t-87 -126t-129 -85t-158 -31.5t-156.5 31.5t-127 85t-86 126t-31.5 156.5zM158 385q0 -66 24.5 -123t67.5 -100t100.5 -67.5t122.5 -24.5q66 0 124 24.5 t101 67.5t68 100t25 123t-25 123t-68 100t-101 68.5t-124 25.5t-123 -25.5t-100 -68.5t-67.5 -100t-24.5 -123zM473 981q47 68 92 136.5t92 135.5h88l-102 -136t-103 -136h-67z" />
<glyph unicode="&#xf4;" horiz-adv-x="952" d="M74 385q0 82 31.5 155.5t86 128t127 86t156.5 31.5t158 -31.5t129 -86t87 -128t32 -155.5q0 -84 -32 -156.5t-87 -126t-129 -85t-158 -31.5t-156.5 31.5t-127 85t-86 126t-31.5 156.5zM158 385q0 -66 24.5 -123t67.5 -100t100.5 -67.5t122.5 -24.5q66 0 124 24.5 t101 67.5t68 100t25 123t-25 123t-68 100t-101 68.5t-124 25.5t-123 -25.5t-100 -68.5t-67.5 -100t-24.5 -123zM235 981q61 92 123 185.5t123 185.5q61 -92 122.5 -185.5t123.5 -185.5h-68q-45 61 -89 123.5t-89 124.5q-45 -61 -89 -124t-89 -124h-68z" />
<glyph unicode="&#xf5;" horiz-adv-x="952" d="M74 385q0 82 31.5 155.5t86 128t127 86t156.5 31.5t158 -31.5t129 -86t87 -128t32 -155.5q0 -84 -32 -156.5t-87 -126t-129 -85t-158 -31.5t-156.5 31.5t-127 85t-86 126t-31.5 156.5zM158 385q0 -66 24.5 -123t67.5 -100t100.5 -67.5t122.5 -24.5q66 0 124 24.5 t101 67.5t68 100t25 123t-25 123t-68 100t-101 68.5t-124 25.5t-123 -25.5t-100 -68.5t-67.5 -100t-24.5 -123zM190 963q2 39 18.5 67.5t41 48t55.5 28.5t59 9q43 0 79 -19.5t69 -54.5t57.5 -46t52.5 -11q14 0 35 4t39 15.5t31.5 32t17.5 53.5q14 -2 27.5 -2.5t25.5 -2.5 q-2 -39 -18 -67.5t-41 -48t-55.5 -28.5t-59.5 -9q-43 0 -78.5 19.5t-70.5 54.5q-31 35 -55.5 46t-53.5 11q-16 0 -35.5 -4t-38 -15.5t-33 -32t-18.5 -53.5q-12 2 -25.5 2.5t-25.5 2.5z" />
<glyph unicode="&#xf6;" horiz-adv-x="952" d="M74 385q0 82 31.5 155.5t86 128t127 86t156.5 31.5t158 -31.5t129 -86t87 -128t32 -155.5q0 -84 -32 -156.5t-87 -126t-129 -85t-158 -31.5t-156.5 31.5t-127 85t-86 126t-31.5 156.5zM158 385q0 -66 24.5 -123t67.5 -100t100.5 -67.5t122.5 -24.5q66 0 124 24.5 t101 67.5t68 100t25 123t-25 123t-68 100t-101 68.5t-124 25.5t-123 -25.5t-100 -68.5t-67.5 -100t-24.5 -123zM245 1040q0 29 20.5 48.5t47.5 19.5q25 0 45 -19.5t20 -48.5t-20.5 -48t-44.5 -19q-27 0 -47.5 19t-20.5 48zM583 1040q0 29 20.5 48.5t47.5 19.5t46 -19.5 t19 -48.5t-19.5 -48t-45.5 -19q-27 0 -47.5 19t-20.5 48z" />
<glyph unicode="&#xf7;" horiz-adv-x="1026" d="M139 426v84h738v-84h-738zM446 213q0 29 20.5 48.5t47.5 19.5t46.5 -19.5t19.5 -48.5t-19.5 -48.5t-46.5 -19.5t-47.5 19.5t-20.5 48.5zM446 725q0 29 20.5 48.5t47.5 19.5t46.5 -19.5t19.5 -48.5t-19.5 -48.5t-46.5 -19.5t-47.5 19.5t-20.5 48.5z" />
<glyph unicode="&#xf8;" horiz-adv-x="948" d="M72 385q0 82 31.5 155.5t86 127t127 85t156.5 31.5q63 0 119.5 -17t103.5 -48q16 20 35 39.5t35 40.5q12 -10 23.5 -21.5t23.5 -21.5q-16 -18 -32.5 -38t-32.5 -40q59 -53 95 -130t36 -163q0 -84 -32 -156.5t-87 -126t-129 -85t-158 -31.5q-70 0 -131 21.5t-113 60.5 q-20 -25 -40.5 -49.5t-41.5 -49.5q-12 10 -24 20.5t-25 20.5q23 25 42.5 49.5t41.5 49.5q-53 53 -81.5 123.5t-28.5 152.5zM158 385q0 -61 21.5 -115.5t58.5 -95.5q102 121 201.5 239.5t201.5 239.5q-35 23 -78 36t-90 13q-68 0 -125 -24.5t-99 -67.5t-66.5 -101t-24.5 -124 zM285 131q79 -61 188 -61q68 0 126 24.5t101 67.5t68 100t25 123q0 68 -27 127t-74 102q-102 -123 -203.5 -242.5t-203.5 -240.5z" />
<glyph unicode="&#xf9;" horiz-adv-x="1103" d="M72 686v82h235v-532q4 -66 48 -115t130 -53q63 0 121 21.5t101 58t68.5 88t25.5 112.5v338h-152v82h238v-694h145v-74h-221l-4 106v93q-41 -98 -132 -156.5t-204 -58.5t-178.5 63.5t-69.5 165.5v473h-151zM289 1253h88q47 -68 92 -136t92 -136h-68q-51 68 -102 136.5 t-102 135.5z" />
<glyph unicode="&#xfa;" horiz-adv-x="1103" d="M72 686v82h235v-532q4 -66 48 -115t130 -53q63 0 121 21.5t101 58t68.5 88t25.5 112.5v338h-152v82h238v-694h145v-74h-221l-4 106v93q-41 -98 -132 -156.5t-204 -58.5t-178.5 63.5t-69.5 165.5v473h-151zM473 981q47 68 92 136.5t92 135.5h88l-102 -136t-103 -136h-67z " />
<glyph unicode="&#xfb;" horiz-adv-x="1103" d="M72 686v82h235v-532q4 -66 48 -115t130 -53q63 0 121 21.5t101 58t68.5 88t25.5 112.5v338h-152v82h238v-694h145v-74h-221l-4 106v93q-41 -98 -132 -156.5t-204 -58.5t-178.5 63.5t-69.5 165.5v473h-151zM299 981q61 92 123 185.5t123 185.5q61 -92 122.5 -185.5 t123.5 -185.5h-68q-45 61 -89 123.5t-89 124.5q-45 -61 -89 -124t-89 -124h-68z" />
<glyph unicode="&#xfc;" horiz-adv-x="1103" d="M72 686v82h235v-532q4 -66 48 -115t130 -53q63 0 121 21.5t101 58t68.5 88t25.5 112.5v338h-152v82h238v-694h145v-74h-221l-4 106v93q-41 -98 -132 -156.5t-204 -58.5t-178.5 63.5t-69.5 165.5v473h-151zM299 1040q0 29 20.5 48.5t47.5 19.5q25 0 45 -19.5t20 -48.5 t-20.5 -48t-44.5 -19q-27 0 -47.5 19t-20.5 48zM637 1040q0 29 20.5 48.5t47.5 19.5t46 -19.5t19 -48.5t-19.5 -48t-45.5 -19q-27 0 -47.5 19t-20.5 48z" />
<glyph unicode="&#xfd;" horiz-adv-x="1230" d="M72 686v82h379v-82h-129q76 -154 152.5 -304.5t146.5 -303.5q66 147 143.5 300.5t155.5 307.5h-119v82h358v-82h-149q-141 -281 -278.5 -558.5t-278.5 -557.5h131v-82h-396v82h174q53 106 106.5 213.5t106.5 212.5q-88 174 -174 345t-172 345h-157zM611 981 q47 68 92 136.5t92 135.5h88l-102 -136t-103 -136h-67z" />
<glyph unicode="&#xfe;" horiz-adv-x="1030" d="M33 -430h157v1884h-157v82h395v-82h-152v-764q-4 -27 -6 -53.5t-4 -50.5q14 37 45 71.5t74 62.5t96.5 44t112.5 16q84 0 157.5 -31.5t128 -85t86 -126t31.5 -154.5t-31.5 -154.5t-86 -127t-128 -86t-157.5 -31.5q-61 0 -113.5 16t-94.5 42t-72.5 59.5t-45.5 70.5 q2 -20 4 -40.5t4 -41.5v-520h168v-82h-411v82zM276 383q0 -66 25 -124t67 -101t100 -67.5t126 -24.5t126 24.5t100 67.5t66.5 101t24.5 124q0 68 -24.5 125t-66.5 99t-100 66.5t-126 24.5t-126 -24.5t-100 -66.5t-67 -99t-25 -125z" />
<glyph unicode="&#xff;" horiz-adv-x="1230" d="M72 686v82h379v-82h-129q76 -154 152.5 -304.5t146.5 -303.5q66 147 143.5 300.5t155.5 307.5h-119v82h358v-82h-149q-141 -281 -278.5 -558.5t-278.5 -557.5h131v-82h-396v82h174q53 106 106.5 213.5t106.5 212.5q-88 174 -174 345t-172 345h-157zM387 1040 q0 29 20.5 48.5t47.5 19.5q25 0 45 -19.5t20 -48.5t-20.5 -48t-44.5 -19q-27 0 -47.5 19t-20.5 48zM725 1040q0 29 20.5 48.5t47.5 19.5t46 -19.5t19 -48.5t-19.5 -48t-45.5 -19q-27 0 -47.5 19t-20.5 48z" />
<glyph unicode="&#x2000;" horiz-adv-x="953" />
<glyph unicode="&#x2001;" horiz-adv-x="1907" />
<glyph unicode="&#x2002;" horiz-adv-x="953" />
<glyph unicode="&#x2003;" horiz-adv-x="1907" />
<glyph unicode="&#x2004;" horiz-adv-x="635" />
<glyph unicode="&#x2005;" horiz-adv-x="476" />
<glyph unicode="&#x2006;" horiz-adv-x="317" />
<glyph unicode="&#x2007;" horiz-adv-x="317" />
<glyph unicode="&#x2008;" horiz-adv-x="238" />
<glyph unicode="&#x2009;" horiz-adv-x="381" />
<glyph unicode="&#x200a;" horiz-adv-x="105" />
<glyph unicode="&#x2010;" horiz-adv-x="614" d="M109 346v84h376v-84h-376z" />
<glyph unicode="&#x2011;" horiz-adv-x="614" d="M109 346v84h376v-84h-376z" />
<glyph unicode="&#x2012;" horiz-adv-x="614" d="M109 346v84h376v-84h-376z" />
<glyph unicode="&#x2013;" horiz-adv-x="1042" d="M205 362v84h616v-84h-616z" />
<glyph unicode="&#x2014;" horiz-adv-x="1433" d="M203 362v84h1028v-84h-1028z" />
<glyph unicode="&#x2018;" horiz-adv-x="335" d="M74 1456q16 -4 33.5 -7t33.5 -7q-14 -72 5.5 -132.5t62.5 -101.5l-41 -41q-59 53 -85 129t-9 160z" />
<glyph unicode="&#x2019;" horiz-adv-x="335" d="M100 1208q43 41 62.5 101.5t5.5 132.5q16 4 33.5 7t34.5 7q16 -84 -10 -160t-85 -129z" />
<glyph unicode="&#x201a;" horiz-adv-x="299" d="M41 -59q43 41 62.5 101t5.5 132q16 4 32.5 7t32.5 7q16 -84 -8.5 -159.5t-83.5 -128.5q-23 18 -41 41z" />
<glyph unicode="&#x201c;" horiz-adv-x="509" d="M63 1456q16 -4 33 -7t33 -7q-14 -72 5.5 -132.5t62.5 -101.5q-10 -10 -20.5 -20t-20.5 -21q-59 53 -84 129t-9 160zM276 1456q16 -4 33 -7t33 -7q-14 -72 5.5 -132.5t62.5 -101.5q-10 -10 -20.5 -20t-20.5 -21q-59 53 -84 129t-9 160z" />
<glyph unicode="&#x201d;" horiz-adv-x="507" d="M63 1208q43 41 62.5 101.5t5.5 132.5q16 4 32.5 7t33.5 7q16 -84 -9 -160t-84 -129q-10 10 -20 20.5t-21 20.5zM276 1208q43 41 62.5 101.5t5.5 132.5q16 4 32.5 7t33.5 7q16 -84 -9 -160t-84 -129q-10 10 -20 20.5t-21 20.5z" />
<glyph unicode="&#x201e;" horiz-adv-x="567" d="M41 -59q43 41 62.5 101t5.5 132q16 4 32.5 7t32.5 7q16 -84 -8.5 -159.5t-83.5 -128.5q-23 18 -41 41zM254 -59q43 41 62.5 101t5.5 132q16 4 32.5 7t32.5 7q16 -84 -8.5 -159.5t-83.5 -128.5q-23 18 -41 41z" />
<glyph unicode="&#x2022;" horiz-adv-x="980" d="M307 614q0 39 14.5 73t39 59.5t57.5 40t71 14.5q78 0 132.5 -54.5t54.5 -132.5q0 -39 -14.5 -71.5t-40 -57t-59.5 -39t-73 -14.5q-78 0 -130 52t-52 130z" />
<glyph unicode="&#x202f;" horiz-adv-x="381" />
<glyph unicode="&#x2039;" horiz-adv-x="802" d="M240 489q88 84 175 165t175 165v-98q-57 -59 -113.5 -115.5t-114.5 -116.5l228 -233v-98z" />
<glyph unicode="&#x203a;" horiz-adv-x="802" d="M240 158v98l227 233q-57 59 -113.5 116t-113.5 116v98q88 -84 175 -165t175 -165z" />
<glyph unicode="&#x205f;" horiz-adv-x="476" />
<glyph unicode="&#xe000;" horiz-adv-x="768" d="M0 0v768h768v-768h-768z" />
</font>
</defs>
</svg>
